<?xml version="1.0" encoding="UTF-8"?>
<svg version="1.1" xmlns="http://www.w3.org/2000/svg" width="767" height="767">
<path d="M0 0 C253.11 0 506.22 0 767 0 C767 253.11 767 506.22 767 767 C513.89 767 260.78 767 0 767 C0 513.89 0 260.78 0 0 Z " fill="#17051A" transform="translate(0,0)"/>
<path d="M0 0 C9.02289016 -0.20879841 18.04494562 -0.36857376 27.06972694 -0.46630955 C31.26073318 -0.51322647 35.45008361 -0.576821 39.64013672 -0.67895508 C43.68625432 -0.77696013 47.73078296 -0.83059901 51.77799606 -0.85389519 C53.3195536 -0.87048864 54.86102679 -0.90289655 56.40190506 -0.95157051 C68.45100699 -1.31694321 68.45100699 -1.31694321 72.23197937 1.89761353 C73.81737964 4.21959974 74.93295559 6.40387374 76 9 C76.7887426 10.57504012 77.58117008 12.14824585 78.37890625 13.71875 C79.11420738 15.30908272 79.84209532 16.90286412 80.5625 18.5 C83.12856726 24.12790421 85.81850383 29.60141164 88.86450195 34.98681641 C90.24712375 37.43813855 91.54591411 39.92443276 92.8125 42.4375 C93.23144531 43.26121094 93.65039062 44.08492187 94.08203125 44.93359375 C95 47 95 47 95 49 C95.66 49 96.32 49 97 49 C97.42667969 49.86496094 97.85335938 50.72992188 98.29296875 51.62109375 C102.68512524 60.48358039 107.19172111 69.28432974 111.75 78.0625 C112.30453857 79.13234131 112.85907715 80.20218262 113.43041992 81.30444336 C115.6555803 85.57966843 117.87541551 89.8411584 120.3125 94 C122.21823031 97.38796499 123.08381964 100.2589302 124 104 C124.66 104 125.32 104 126 104 C126.41507812 104.85335937 126.83015625 105.70671875 127.2578125 106.5859375 C132.28177497 116.81308963 137.63814909 126.84750607 143.07470703 136.86083984 C152 153.31708177 152 153.31708177 152 156 C152.66 156 153.32 156 154 156 C157.60416667 163.20833333 161.20833333 170.41666667 164.8125 177.625 C165.20050781 178.3984375 165.58851563 179.171875 165.98828125 179.96875 C166.84064123 181.68005189 167.67269428 183.40144642 168.5 185.125 C169.66792291 187.36351892 170.87967135 189.3911176 172.25 191.5 C175.35798729 196.36918008 177.8248746 201.54561372 180.3515625 206.73046875 C181.9281264 209.96765486 181.9281264 209.96765486 183.7109375 212.80078125 C185 215 185 215 185 217 C185.66 217 186.32 217 187 217 C187.29003906 218.06541016 187.29003906 218.06541016 187.5859375 219.15234375 C187.84632813 220.07144531 188.10671875 220.99054688 188.375 221.9375 C188.75785156 223.31228516 188.75785156 223.31228516 189.1484375 224.71484375 C189.76660104 227.16745087 189.76660104 227.16745087 192 228 C193.03811977 229.88538744 194.00728901 231.80910176 194.9375 233.75 C196.8040933 237.62640347 198.77025421 241.32287537 201 245 C202.36173479 247.44324804 203.68219896 249.90783865 205 252.375 C205.51433594 253.32632813 205.51433594 253.32632813 206.0390625 254.296875 C208.26157259 258.45347784 210.18568397 262.64982438 212 267 C214.34072159 272.02821675 216.99879102 276.66864652 219.9375 281.375 C224.28025024 288.34604414 227.97687505 295.36784848 231 303 C232.47420719 306.21645205 233.86136994 308.83282846 236.125 311.5625 C238.10878765 314.14142394 238.63512137 315.80731196 239 319 C239.66 319 240.32 319 241 319 C241.433125 320.7015625 241.433125 320.7015625 241.875 322.4375 C242.24625 323.613125 242.6175 324.78875 243 326 C243.66 326.33 244.32 326.66 245 327 C246.0703125 328.70703125 246.0703125 328.70703125 247.125 330.8125 C247.65480469 331.84310547 247.65480469 331.84310547 248.1953125 332.89453125 C249 335 249 335 249 339 C249.66 339 250.32 339 251 339 C252.17713663 341.0780065 253.34171974 343.16151783 254.5 345.25 C254.83386719 345.83652344 255.16773438 346.42304688 255.51171875 347.02734375 C257.36076806 350.38582107 258 352.06645784 258 356 C223.35 356 188.7 356 153 356 C147.6 342.5 147.6 342.5 146.25 339.0625 C145.60804688 337.44021484 145.60804688 337.44021484 144.953125 335.78515625 C144 333 144 333 144 330 C143.34 330 142.68 330 142 330 C141.67 327.69 141.34 325.38 141 323 C140.34 323 139.68 323 139 323 C138.17898686 320.8156809 137.36857518 318.62737564 136.5625 316.4375 C136.11003906 315.21933594 135.65757812 314.00117188 135.19140625 312.74609375 C134.02114858 309.06649667 133.42738647 305.81700334 133 302 C132.34 302 131.68 302 131 302 C130.67386719 300.9378125 130.34773438 299.875625 130.01171875 298.78125 C127.16368283 289.55051343 124.36606695 280.55444531 119.97265625 271.91796875 C117.49628471 267.03484253 115.85383865 262.57725581 114.625 257.25 C113.39465478 252.07095519 111.56459238 247.58568022 109.265625 242.80078125 C107.09993931 238.00819903 105.58600277 233.00733625 104 228 C103.34 226.02 102.68 224.04 102 222 C64.71 222 27.42 222 -11 222 C-9.83344775 213.83413428 -8.36272209 207.01829206 -4 200 C-3.27833809 197.68308546 -2.59940471 195.35151077 -2 193 C-1.34 193 -0.68 193 0 193 C0.10957031 192.43152344 0.21914063 191.86304688 0.33203125 191.27734375 C1.21853935 186.96012136 2.27870401 183.11598572 4.140625 179.09765625 C5.77749532 175.1022046 6.9049884 170.92854681 8.1328125 166.79296875 C9 164 9 164 10 162 C32.11 162 54.22 162 77 162 C74.92995118 155.78985353 72.82052386 149.63822007 70.5625 143.5 C70.27568359 142.70980469 69.98886719 141.91960937 69.69335938 141.10546875 C66.91314471 133.5388266 63.74894665 126.21911568 59.9296875 119.1171875 C58.91570188 116.80802697 58.25636619 114.46706145 57.58935547 112.03857422 C56.42629708 108.01556779 55.00777963 104.07665042 53.625 100.125 C53.18800781 98.85462891 53.18800781 98.85462891 52.7421875 97.55859375 C51.02384664 92.63720524 49.10567887 87.88251544 46.94628906 83.13916016 C45.49454722 79.85738461 44.28230522 76.49824683 43.0625 73.125 C40.66617611 66.60552151 38.00135382 60.26831418 35 54 C34.65388672 54.98226562 34.65388672 54.98226562 34.30078125 55.984375 C32.48121644 61.07627968 30.5654378 66.0908635 28.4375 71.0625 C26.52728829 75.56055205 25.00525492 80.01879441 23.7734375 84.74609375 C23 87 23 87 21.58984375 89.32421875 C19.68214297 92.53496822 18.44254197 95.87541275 17.1875 99.375 C16.65894506 100.81691763 16.12896491 102.25831352 15.59765625 103.69921875 C15.33098145 104.42286621 15.06430664 105.14651367 14.78955078 105.89208984 C13.6208852 109.01214507 12.37465294 112.09912067 11.125 115.1875 C8.63511225 121.37608645 6.20416727 127.58527455 3.8125 133.8125 C3.47943848 134.67190186 3.14637695 135.53130371 2.80322266 136.41674805 C0.59005386 142.20559201 -1.29888975 148.04094479 -3 154 C-3.66 154 -4.32 154 -5 154 C-5.18175781 154.68964844 -5.36351562 155.37929688 -5.55078125 156.08984375 C-7.16834166 162.13703115 -8.94180675 168.08816832 -11 174 C-11.66 174 -12.32 174 -13 174 C-13.13277344 174.68707031 -13.26554688 175.37414062 -13.40234375 176.08203125 C-13.57894531 176.98308594 -13.75554687 177.88414062 -13.9375 178.8125 C-14.11152344 179.70582031 -14.28554688 180.59914063 -14.46484375 181.51953125 C-15 184 -15 184 -16 187 C-16.66 187 -17.32 187 -18 187 C-18.18175781 187.72445312 -18.36351562 188.44890625 -18.55078125 189.1953125 C-19.92806531 194.49255887 -21.46124156 199.13404631 -24 204 C-24.77091226 206.17220591 -25.4750129 208.35673813 -26.15625 210.55859375 C-27 213 -27 213 -28.484375 216.34375 C-29.96481069 219.91511032 -30.88235772 223.30135258 -31.75 227.0625 C-33.72005419 235.03385805 -37.11107229 241.79059573 -41 249 C-42.00641389 250.99678018 -43.00844765 252.99579843 -44 255 C-44.66 255 -45.32 255 -46 255 C-45.938125 255.804375 -45.87625 256.60875 -45.8125 257.4375 C-46.05435965 262.03283326 -47.39401409 265.71525498 -49 270 C-49.59748047 271.63001953 -49.59748047 271.63001953 -50.20703125 273.29296875 C-53.60256752 282.37166844 -53.60256752 282.37166844 -55.51953125 285.40234375 C-57.40814137 288.71613196 -58.28436386 292.14021493 -59.1875 295.8125 C-59.36474609 296.50537109 -59.54199219 297.19824219 -59.72460938 297.91210938 C-60.15690974 299.60625944 -60.57945894 301.30289268 -61 303 C-61.66 303 -62.32 303 -63 303 C-63.18175781 303.60585938 -63.36351562 304.21171875 -63.55078125 304.8359375 C-64.08095623 306.60318744 -64.61229342 308.37008897 -65.14453125 310.13671875 C-65.69228882 311.97008083 -66.23211161 313.8058439 -66.76171875 315.64453125 C-68.20384401 320.6118516 -69.85135773 325.29345027 -72 330 C-72.66 330 -73.32 330 -74 330 C-74.10957031 330.56847656 -74.21914063 331.13695312 -74.33203125 331.72265625 C-75.38287274 336.84016889 -76.85557927 341.24498013 -79 346 C-79.37308631 347.32276056 -79.73046415 348.65232077 -80 350 C-80.66 350 -81.32 350 -82 350 C-82.33 351.98 -82.66 353.96 -83 356 C-117.98 356 -152.96 356 -189 356 C-188.20197185 352.8078874 -187.25768711 350.01844907 -186 347 C-185.34 347 -184.68 347 -184 347 C-183.82984375 346.40832031 -183.6596875 345.81664062 -183.484375 345.20703125 C-181.96502175 340.25296986 -180.30766732 337.03121955 -177 333 C-176.16575682 330.91239625 -175.459688 328.82331689 -174.80859375 326.671875 C-174.54175781 326.12015625 -174.27492187 325.5684375 -174 325 C-173.01 324.67 -172.02 324.34 -171 324 C-170.15330427 322.1681218 -170.15330427 322.1681218 -169.625 319.9375 C-168.6622134 316.77758501 -167.6456185 314.18411234 -165.8125 311.4375 C-160.95690037 304.13196256 -157.39273628 295.95732655 -153.5859375 288.0703125 C-151.4599744 283.95453171 -149.1007717 279.99041591 -146.75 276 C-142.1604093 268.13826389 -137.96429411 260.19719694 -134 252 C-132.69604734 249.32906578 -131.3828037 246.66288833 -130.0625 244 C-129.7334668 243.33629395 -129.40443359 242.67258789 -129.06542969 241.98876953 C-126.12398528 236.12163334 -122.89251337 230.44930356 -119.56640625 224.79296875 C-117.91096236 222.04663116 -117.91096236 222.04663116 -117 219 C-116.34 219 -115.68 219 -115 219 C-114.7215625 217.63875 -114.7215625 217.63875 -114.4375 216.25 C-113.08213852 211.48714521 -110.4737485 207.53226411 -107.9296875 203.3203125 C-105.93155677 199.88223332 -104.16867641 196.38884769 -102.4375 192.8125 C-100.04640866 187.93381588 -97.43190081 183.51191699 -94.33203125 179.0625 C-92.56031804 176.31920213 -91.32519389 173.46119047 -90.0625 170.45703125 C-87.33896353 164.15885317 -84.21000862 157.98841028 -80.75 152.0625 C-78.9950836 149.17077528 -78.9950836 149.17077528 -78.0625 146.5625 C-77.02198073 144.05301235 -75.82761426 142.13852634 -74.25 139.9375 C-70.58091324 134.56810474 -67.82254577 128.84459085 -65 123 C-62.10415574 117.12306994 -59.1036519 111.30287177 -56.0625 105.5 C-55.64548828 104.69691406 -55.22847656 103.89382812 -54.79882812 103.06640625 C-52.79225814 99.23934696 -50.73206813 95.52682322 -48.37109375 91.90625 C-46.32808613 88.71645792 -45.04415256 85.59997699 -43.8046875 82.03564453 C-42.31321267 78.26261143 -40.12074388 74.8837088 -38 71.4375 C-34.90852716 66.38657894 -32.33675139 61.45440695 -30 56 C-28.24480533 52.7454586 -26.37659413 49.56073008 -24.5 46.375 C-24.01402344 45.54226562 -23.52804687 44.70953125 -23.02734375 43.8515625 C-21.12318503 40.59322007 -19.21259917 37.34447637 -17.23046875 34.1328125 C-15.82402879 31.85505971 -15.82402879 31.85505971 -14.8125 28.5 C-13.00837016 23.43125425 -10.06139609 19.12147126 -7.1328125 14.63671875 C-5.2639241 11.63022073 -3.81570938 8.50091557 -2.36669922 5.27270508 C-1.92188202 4.28458328 -1.47706482 3.29646149 -1.01876831 2.27839661 C-0.68257477 1.52652573 -0.34638123 0.77465485 0 0 Z " fill="#B883D5" transform="translate(349,132)"/>
<path d="M0 0 C4.29 0 8.58 0 13 0 C13.31434602 3.83319032 13.62695674 7.66650079 13.9375 11.5 C14.0295874 12.63590576 14.1216748 13.77181152 14.21655273 14.94213867 C14.83097166 22.62047048 15.35335258 30.29601582 15.75390625 37.98828125 C15.90013293 40.84243904 15.90013293 40.84243904 16.5 42.92163086 C17.02073569 45.08619282 17.17264078 47.04274536 17.24609375 49.265625 C17.27896484 50.07386719 17.31183594 50.88210938 17.34570312 51.71484375 C17.40633101 53.38920544 17.46368623 55.06368922 17.51757812 56.73828125 C17.68366474 60.69302288 17.98646053 64.34422998 19.02734375 68.171875 C20.47439704 73.86710481 20.12209157 79.13960465 20 85 C15.38 85 10.76 85 6 85 C6 82.69 6 80.38 6 78 C4.02 78.495 4.02 78.495 2 79 C2 79.66 2 80.32 2 81 C-0.475 81.495 -0.475 81.495 -3 82 C-3 82.66 -3 83.32 -3 84 C-6.60040337 84.82481968 -9.93351403 85.13516938 -13.625 85.125 C-14.56601562 85.12757813 -15.50703125 85.13015625 -16.4765625 85.1328125 C-19 85 -19 85 -22 84 C-22 83.34 -22 82.68 -22 82 C-22.74378906 81.89429688 -23.48757813 81.78859375 -24.25390625 81.6796875 C-29.94056909 80.27217778 -33.76283868 75.96239381 -36.8125 71.125 C-38.26594822 68.44171099 -39.63549876 65.72900248 -41 63 C-41.33 62.67 -41.66 62.34 -42 62 C-42.56555283 50.83361964 -42.69292009 39.54725366 -36 30 C-29.55306914 23.64949759 -23.56337671 22.86665777 -14.6875 22.5625 C-12.83705078 22.47162109 -12.83705078 22.47162109 -10.94921875 22.37890625 C-5.62002929 23.21702803 -2.22583607 25.77276598 2 29 C1.93941406 28.33468262 1.87882813 27.66936523 1.81640625 26.98388672 C1.54150683 23.94783412 1.2707177 20.91142821 1 17.875 C0.90460937 16.82828125 0.80921875 15.7815625 0.7109375 14.703125 C0.62070312 13.68476562 0.53046875 12.66640625 0.4375 11.6171875 C0.35371094 10.68503418 0.26992188 9.75288086 0.18359375 8.79248047 C-0.00872249 5.86732996 0 2.93146568 0 0 Z " fill="#B081D8" transform="translate(600,554)"/>
<path d="M0 0 C1.92392578 -0.00773438 1.92392578 -0.00773438 3.88671875 -0.015625 C7.01234783 0.22672708 8.71149683 0.59062582 11.3125 2.25 C11.3125 2.91 11.3125 3.57 11.3125 4.25 C11.9725 4.435625 12.6325 4.62125 13.3125 4.8125 C21.14222135 8.56424148 26.75093155 15.11168359 30.0625 23.0625 C32.57541625 31.22600692 33.20888324 42.54746579 29.3125 50.3125 C28.6525 51.281875 27.9925 52.25125 27.3125 53.25 C26.6525 53.25 25.9925 53.25 25.3125 53.25 C25.085625 53.848125 24.85875 54.44625 24.625 55.0625 C22.94539954 57.86183411 21.22144875 58.83100061 18.3125 60.25 C17.3225 60.25 16.3325 60.25 15.3125 60.25 C15.3125 60.91 15.3125 61.57 15.3125 62.25 C5.49144514 64.47228249 -3.672467 63.7575165 -12.6875 59.25 C-12.6875 58.59 -12.6875 57.93 -12.6875 57.25 C-13.27789063 57.14816406 -13.86828125 57.04632812 -14.4765625 56.94140625 C-18.88734573 55.56206238 -21.23028611 52.00187497 -23.6875 48.25 C-28.02229996 39.60853291 -31.81965652 30.28180914 -28.9140625 20.69921875 C-26.7404158 14.83037267 -23.83640783 8.11168087 -18.6875 4.25 C-17.3675 4.25 -16.0475 4.25 -14.6875 4.25 C-14.6875 3.59 -14.6875 2.93 -14.6875 2.25 C-9.63924368 0.60425538 -5.36627458 -0.02170384 0 0 Z " fill="#B081D8" transform="translate(688.6875,575.75)"/>
<path d="M0 0 C0 0.66 0 1.32 0 2 C0.680625 2.165 1.36125 2.33 2.0625 2.5 C7.9705121 5.51685724 11.83313598 10.55924766 13.9375 16.8125 C15 22 15 22 15 33 C0.15 33 -14.7 33 -30 33 C-29.67 35.31 -29.34 37.62 -29 40 C-28.34 40 -27.68 40 -27 40 C-26.67 40.99 -26.34 41.98 -26 43 C-21.67348968 47.22818054 -18.62968662 48.39245975 -12.5625 48.625 C-7.16778228 48.44517608 -3.84442329 47.41557282 0.31640625 43.99609375 C2 43 2 43 4.0703125 43.203125 C7.05702909 44.43650594 8.30943865 46.30762452 10 49 C10.09680324 52.09770382 8.86125272 53.1673129 6.875 55.5625 C-0.80938501 62.07752207 -8.23063025 61.57344219 -18 61 C-24.95545368 60.36401512 -30.09997802 58.04910987 -35 53 C-42.44151247 42.92445121 -43.64985971 35.17885238 -43 23 C-42.44575838 19.97515591 -41.53226092 17.65399155 -40 15 C-39.58621094 14.25363281 -39.17242187 13.50726562 -38.74609375 12.73828125 C-34.73846646 6.13170219 -29.71462277 0.84374053 -22.125 -1.375 C-14.47235996 -2.8455073 -7.41878568 -2.19815872 0 0 Z " fill="#B181D5" transform="translate(322,578)"/>
<path d="M0 0 C4.2394648 3.88776032 4.71700508 7.89396009 5.1875 13.4375 C5.5355946 23.32780697 4.79761339 32.99149682 3.6875 42.8125 C3.54228393 44.14575892 3.39774989 45.47909231 3.25390625 46.8125 C2.90509495 50.02156396 2.54725944 53.22964496 2.1875 56.4375 C-2.1025 56.4375 -6.3925 56.4375 -10.8125 56.4375 C-10.8125 54.7875 -10.8125 53.1375 -10.8125 51.4375 C-13.52474618 53.05018692 -16.18602812 54.68651874 -18.8125 56.4375 C-27.08084452 58.5878245 -35.27586393 58.34636781 -42.97265625 54.60546875 C-46.18743888 52.56466194 -47.59538531 51.08884407 -48.8125 47.4375 C-49.26707733 41.39056439 -48.80192743 36.15710387 -46.8125 30.4375 C-46.1525 30.4375 -45.4925 30.4375 -44.8125 30.4375 C-44.1525 28.7875 -43.4925 27.1375 -42.8125 25.4375 C-42.1525 25.4375 -41.4925 25.4375 -40.8125 25.4375 C-40.8125 24.7775 -40.8125 24.1175 -40.8125 23.4375 C-30.24569404 19.19055406 -18.97568011 20.14944652 -7.8125 20.4375 C-8.12143932 18.8118193 -8.4347695 17.18697252 -8.75 15.5625 C-8.92402344 14.65757812 -9.09804687 13.75265625 -9.27734375 12.8203125 C-9.71213701 10.43793683 -9.71213701 10.43793683 -10.8125 8.4375 C-16.95844305 6.19214376 -25.9057114 6.21477356 -31.875 8.875 C-32.844375 9.390625 -33.81375 9.90625 -34.8125 10.4375 C-36.13526056 10.81058631 -37.46482077 11.16796415 -38.8125 11.4375 C-41.8125 4.9375 -41.8125 4.9375 -41.8125 0.4375 C-41.1525 0.4375 -40.4925 0.4375 -39.8125 0.4375 C-39.8125 -0.2225 -39.8125 -0.8825 -39.8125 -1.5625 C-26.31249141 -5.96106837 -12.22337821 -8.86006675 0 0 Z " fill="#B182D4" transform="translate(95.8125,581.5625)"/>
<path d="M0 0 C0 0.66 0 1.32 0 2 C0.62648438 2.12117187 1.25296875 2.24234375 1.8984375 2.3671875 C2.71570313 2.53476562 3.53296875 2.70234375 4.375 2.875 C5.18710937 3.03742187 5.99921875 3.19984375 6.8359375 3.3671875 C9 4 9 4 11 6 C10.69113208 10.16971689 9.96662189 13.3407937 8 17 C7.43152344 16.80664062 6.86304688 16.61328125 6.27734375 16.4140625 C3.85542924 15.59732338 1.42785188 14.79889187 -1 14 C-2.7325 13.4121875 -2.7325 13.4121875 -4.5 12.8125 C-11.21249543 11.25424213 -17.5377396 11.41509584 -24 14 C-26.22487301 15.86602252 -26.87417385 17.10681158 -27.27734375 19.96875 C-27.43900824 22.41511547 -27.43900824 22.41511547 -27 26 C-26.01 26.66 -25.02 27.32 -24 28 C-24 28.66 -24 29.32 -24 30 C-22.41717291 30.43932799 -20.83369546 30.87631269 -19.25 31.3125 C-18.24582031 31.58964844 -17.24164063 31.86679687 -16.20703125 32.15234375 C-14.13025124 32.70126124 -12.04418929 33.21661779 -9.94921875 33.69140625 C-0.48497379 35.83958117 7.65643636 38.54458057 13.94140625 46.25390625 C17.37901864 51.92406396 16.92046702 59.69013184 16 66 C13.45472986 71.3877038 9.95931121 76.50213967 4.4375 79.125 C-1.83117588 80.72066295 -7.94068161 81.19473852 -14.375 81.1875 C-15.12015869 81.18669434 -15.86531738 81.18588867 -16.63305664 81.18505859 C-29.96326488 81.03673512 -29.96326488 81.03673512 -34 77 C-35.155 76.505 -36.31 76.01 -37.5 75.5 C-41 74 -41 74 -43 72 C-42.67176873 67.65093573 -41.80260764 63.9657368 -40 60 C-36.16156604 60.39368553 -33.03717621 61.33700702 -29.5625 62.9375 C-21.42824414 66.64715234 -11.530917 69.38305405 -2.73046875 66.171875 C-0.69564654 64.95286805 -0.69564654 64.95286805 1 62 C1.66 62 2.32 62 3 62 C3.05641962 59.17901886 3.03409663 57.56771452 2 55 C-3.68361369 49.71343366 -10.61953402 47.57260405 -17.9375 45.5625 C-35.83132475 40.24050137 -35.83132475 40.24050137 -40.625 32.3125 C-41.75396236 22.33999918 -41.54902632 14.66995499 -35.78515625 6.21875 C-27.55629687 -3.51277066 -11.28033836 -2.11613004 0 0 Z " fill="#B382D7" transform="translate(417,558)"/>
<path d="M0 0 C4.29 0 8.58 0 13 0 C13.04487549 1.05388916 13.08975098 2.10777832 13.13598633 3.19360352 C13.3070926 7.12853683 13.49581926 11.06246628 13.68969727 14.99633789 C13.77095543 16.69435894 13.84752546 18.39261144 13.91918945 20.09106445 C14.02343647 22.54194782 14.14489434 24.99148513 14.26953125 27.44140625 C14.29779495 28.19273331 14.32605865 28.94406036 14.35517883 29.71815491 C14.69119097 35.79633278 15.95648957 40.71607658 20.125 45.375 C24.05235397 47.59480876 27.49277881 48.33958516 32 48 C35.92186681 46.58209431 39.35042701 44.2288879 42 41 C42.43116962 39.04963532 42.43116962 39.04963532 42.34057617 36.89575195 C42.34034958 36.07512772 42.34012299 35.25450348 42.33988953 34.40901184 C42.32440567 33.52767075 42.30892181 32.64632965 42.29296875 31.73828125 C42.28660149 30.37959175 42.28660149 30.37959175 42.28010559 28.99345398 C42.26330848 26.09950067 42.2256545 23.20624294 42.1875 20.3125 C42.17245449 18.35092151 42.15876585 16.38933211 42.14648438 14.42773438 C42.11340157 9.61822144 42.06161222 4.80922867 42 0 C46.29 0 50.58 0 55 0 C56.49494093 20.33409947 57.4717003 40.61875363 58 61 C53.71 61 49.42 61 45 61 C45 58.69 45 56.38 45 54 C44.40832031 54.49371094 43.81664062 54.98742187 43.20703125 55.49609375 C42.41683594 56.13675781 41.62664063 56.77742187 40.8125 57.4375 C40.03519531 58.07558594 39.25789062 58.71367188 38.45703125 59.37109375 C32.40279572 63.38479203 24.12218527 62.57240063 17.25 61.3125 C13.30256661 59.71834421 11.11105916 57.89894149 8 55 C7.38125 54.484375 6.7625 53.96875 6.125 53.4375 C5 52 5 52 5 48 C4.34 48 3.68 48 3 48 C-3.45671537 35.08656926 -0.16522566 14.09925635 0 0 Z " fill="#AE7CD1" transform="translate(489,577)"/>
<path d="M0 0 C0.495 0.99 0.495 0.99 1 2 C1.63454102 2.28512451 2.26908203 2.57024902 2.92285156 2.86401367 C6.4188496 4.77596464 7.00975369 7.50268658 8.23242188 11.16650391 C10.00593491 20.02391536 9.39861089 29.19584016 9.25 38.1875 C9.22990589 40.30532167 9.21166027 42.42316173 9.1953125 44.54101562 C9.15154425 49.69446961 9.08267648 54.84702936 9 60 C4.38 60 -0.24 60 -5 60 C-4.98952637 58.75387939 -4.97905273 57.50775879 -4.96826172 56.22387695 C-4.93201256 51.59272138 -4.90908156 46.9615783 -4.89013672 42.33032227 C-4.88009037 40.32737111 -4.86645091 38.32443458 -4.84912109 36.3215332 C-4.82481287 33.43957912 -4.81350313 30.55781928 -4.8046875 27.67578125 C-4.79436493 26.78288895 -4.78404236 25.88999664 -4.77340698 24.970047 C-4.76839767 18.74998367 -4.76839767 18.74998367 -7 13 C-12.11130004 10.05554169 -17.42591669 10.74133603 -23 12 C-26.53515068 13.74661595 -28.56095133 15.94811663 -30.09912109 19.63330078 C-31.17828237 23.66626393 -31.55650202 27.52654064 -31.8515625 31.6796875 C-31.91532074 32.49245148 -31.97907898 33.30521545 -32.04476929 34.14260864 C-32.24529195 36.71958367 -32.4353007 39.29720793 -32.625 41.875 C-32.7597212 43.63026185 -32.89513068 45.38547102 -33.03125 47.140625 C-33.36213431 51.42651473 -33.6835965 55.71301791 -34 60 C-38.29 60 -42.58 60 -47 60 C-47.1594174 47.37613457 -46.55196425 34.79654911 -46 22.1875 C-45.90339302 19.93425562 -45.80703676 17.68100047 -45.7109375 15.42773438 C-45.47684991 9.95169448 -45.23936583 4.47581161 -45 -1 C-40.38 -1 -35.76 -1 -31 -1 C-31 0.98 -31 2.96 -31 5 C-30.38511719 4.57847656 -29.77023438 4.15695312 -29.13671875 3.72265625 C-28.32847656 3.17480469 -27.52023438 2.62695312 -26.6875 2.0625 C-25.88699219 1.51722656 -25.08648437 0.97195313 -24.26171875 0.41015625 C-17.36833595 -3.88779054 -7.32929303 -2.93171721 0 0 Z " fill="#B385D8" transform="translate(257,578)"/>
<path d="M0 0 C4.29 0 8.58 0 13 0 C13.40026361 14.89536564 12.15770332 29.39388855 10.5 44.1875 C10.25818751 46.41331094 10.01729666 48.6392222 9.77734375 50.86523438 C9.19715707 56.24496536 8.59825356 61.6221278 8 67 C20.54 67 33.08 67 46 67 C46 70.96 46 74.92 46 79 C45 80 45 80 42.90562439 80.12025452 C41.98407059 80.11803391 41.06251678 80.11581329 40.11303711 80.11352539 C39.07203354 80.11344986 38.03102997 80.11337433 36.95848083 80.11329651 C35.8262056 80.10813522 34.69393036 80.10297394 33.52734375 80.09765625 C32.37456436 80.0962413 31.22178497 80.09482635 30.03407288 80.09336853 C26.33518936 80.08775005 22.63636536 80.07519442 18.9375 80.0625 C16.43684983 80.05748738 13.93619871 80.05292406 11.43554688 80.04882812 C5.29034412 80.03777462 -0.85482369 80.02101852 -7 80 C-7.06803018 74.03521228 -6.94636048 68.17942557 -6.37890625 62.234375 C-6.31468979 61.55248108 -6.25047333 60.87058716 -6.18431091 60.16802979 C-6.04948401 58.74624843 -5.91243682 57.32467592 -5.77319336 55.90332031 C-5.56159078 53.7407076 -5.35739306 51.57748906 -5.15429688 49.4140625 C-4.14845472 38.87983838 -4.14845472 38.87983838 -3.48413086 34.94262695 C-2.97536925 31.85029027 -2.71133108 28.80992573 -2.5 25.68359375 C-2.4175 24.50732422 -2.335 23.33105469 -2.25 22.11914062 C-2.0830693 19.66082521 -1.91640346 17.20249179 -1.75 14.74414062 C-1.6675 13.56916016 -1.585 12.39417969 -1.5 11.18359375 C-1.4278125 10.11681396 -1.355625 9.05003418 -1.28125 7.95092773 C-1 5 -1 5 0 0 Z " fill="#B181DA" transform="translate(123,558)"/>
<path d="M0 0 C3.96 0 7.92 0 12 0 C12.33 4.29 12.66 8.58 13 13 C17.95 13.33 22.9 13.66 28 14 C28 17.3 28 20.6 28 24 C23.05 24 18.1 24 13 24 C13.11416018 28.52134378 13.24091913 33.04173986 13.375 37.5625 C13.4059375 38.83931641 13.436875 40.11613281 13.46875 41.43164062 C13.3163064 52.03023529 13.3163064 52.03023529 18 61 C20.83209164 61.20545218 20.83209164 61.20545218 24 61.0625 C29.80410023 60.90205011 29.80410023 60.90205011 32 62 C32.4140625 64.28515625 32.4140625 64.28515625 32.625 67.0625 C32.69976562 67.98160156 32.77453125 68.90070313 32.8515625 69.84765625 C32.90054688 70.55792969 32.94953125 71.26820313 33 72 C25.84791658 75.81444449 18.966701 76.17050193 11.1875 73.875 C7.23216258 71.54833093 2.83804769 68.74597333 1.43434143 64.14654541 C0.70945172 60.5640903 0.87916526 56.93696044 0.90234375 53.296875 C0.9037587 52.45908508 0.90517365 51.62129517 0.90663147 50.75811768 C0.91221803 48.08870843 0.92476806 45.4193838 0.9375 42.75 C0.94251674 40.93750121 0.94707934 39.12500111 0.95117188 37.3125 C0.96218306 32.87496752 0.97943845 28.43749809 1 24 C-2.3 24 -5.6 24 -9 24 C-9 20.7 -9 17.4 -9 14 C-6.03 14 -3.06 14 0 14 C0 9.38 0 4.76 0 0 Z " fill="#B183DA" transform="translate(447,564)"/>
<path d="M0 0 C5.11814352 2.72188383 8.24293034 5.2042777 10.76953125 10.5234375 C12.3899066 17.50351591 13.02046322 24.45146474 9.20703125 30.7734375 C7.87109375 32.6953125 7.87109375 32.6953125 6.58203125 34.0234375 C5.92203125 34.0234375 5.26203125 34.0234375 4.58203125 34.0234375 C4.58203125 34.6834375 4.58203125 35.3434375 4.58203125 36.0234375 C0.84493639 38.51483407 -3.08794373 38.67333276 -7.41796875 38.0234375 C-12.31355697 36.25195014 -16.86515464 33.97570136 -19.3671875 29.21875 C-21.71377409 22.6383749 -22.3348737 15.9631495 -21.41796875 9.0234375 C-19.39991746 4.96427148 -17.13328543 2.62415918 -13.41796875 0.0234375 C-8.69407319 -1.55119435 -4.62032987 -1.86604599 0 0 Z " fill="#15061C" transform="translate(592.41796875,588.9765625)"/>
<path d="M0 0 C5.49305195 3.91914143 10.60881862 9.03253832 11.80859375 15.90625 C11.87547966 17.82186254 11.89391094 19.73960592 11.87109375 21.65625 C11.86207031 22.64109375 11.85304688 23.6259375 11.84375 24.640625 C11.83214844 25.38828125 11.82054687 26.1359375 11.80859375 26.90625 C11.14859375 26.90625 10.48859375 26.90625 9.80859375 26.90625 C9.46828125 28.2675 9.46828125 28.2675 9.12109375 29.65625 C7.51937436 33.62241229 6.59818699 34.89544542 2.80859375 36.90625 C-2.88297169 37.5909496 -8.00117521 37.50998717 -13.19140625 34.90625 C-17.88013788 30.71448071 -21.84197861 25.4247922 -22.47265625 19.07421875 C-22.64180677 13.35834075 -22.66078044 8.69159371 -19.19140625 3.90625 C-13.84024295 -1.04357605 -6.89005738 -3.43888782 0 0 Z " fill="#16061B" transform="translate(695.19140625,589.09375)"/>
<path d="M0 0 C4.29 0 8.58 0 13 0 C12.71753382 8.01723164 12.43090695 16.03429954 12.14111328 24.05126953 C12.00590196 27.8348473 11.87562293 31.61856786 11.74609375 35.40234375 C11.66422873 37.70573508 11.58220423 40.00912075 11.5 42.3125 C11.46463135 43.3835498 11.4292627 44.45459961 11.39282227 45.55810547 C11.20217689 50.77853476 10.87205909 55.84758424 10 61 C5.38 61 0.76 61 -4 61 C-4.15518293 49.23308564 -3.58086972 37.71774196 -2.5625 26 C-2.4258662 24.35811993 -2.28979642 22.71619282 -2.15429688 21.07421875 C-2.02134675 19.48693608 -1.88790139 17.89969479 -1.75390625 16.3125 C-1.6934462 15.59465332 -1.63298615 14.87680664 -1.57069397 14.13720703 C-1.15863279 9.40761775 -0.61259523 4.7079017 0 0 Z " fill="#B081E1" transform="translate(183,577)"/>
<path d="M0 0 C4.62 0 9.24 0 14 0 C15.66040863 10.57608108 16.6668902 21.08940013 17.43261719 31.76147461 C17.62647162 34.45797012 17.8283252 37.15378272 18.03125 39.84960938 C18.15931914 41.58590327 18.28693957 43.32223033 18.4140625 45.05859375 C18.47340973 45.85349716 18.53275696 46.64840057 18.59390259 47.46739197 C18.91511982 51.99210147 19.05648031 56.46387822 19 61 C14.71 61 10.42 61 6 61 C3.46909952 40.68464233 1.28794149 20.43759786 0 0 Z " fill="#B182DA" transform="translate(631,577)"/>
<path d="M0 0 C0.97904297 0.01804687 1.95808594 0.03609375 2.96679688 0.0546875 C5.37470771 0.10167113 7.78059335 0.16734306 10.1875 0.25 C10.58307609 8.81781852 10.58307609 8.81781852 7.4375 12.6875 C6.92703125 13.34621094 6.4165625 14.00492188 5.890625 14.68359375 C2.0934556 18.17594451 -3.27445948 17.59419316 -8.171875 17.515625 C-10.8125 17.25 -10.8125 17.25 -14 15.8125 C-16.28875557 12.57667316 -16.41002791 10.35436983 -16.4765625 6.46875 C-14.1646297 -1.25582548 -6.54873019 -0.22869978 0 0 Z " fill="#15061B" transform="translate(76.8125,610.75)"/>
<path d="M0 0 C3.57960564 -0.07529915 6.29865874 -0.06841584 9.7265625 1.07421875 C9.7265625 1.73421875 9.7265625 2.39421875 9.7265625 3.07421875 C10.3453125 3.36296875 10.9640625 3.65171875 11.6015625 3.94921875 C13.7265625 5.07421875 13.7265625 5.07421875 15.7265625 7.07421875 C15.7265625 9.38421875 15.7265625 11.69421875 15.7265625 14.07421875 C5.8265625 14.07421875 -4.0734375 14.07421875 -14.2734375 14.07421875 C-14.2734375 7.64067669 -14.00321396 6.75371994 -9.97265625 2.48828125 C-6.83556464 -0.1223559 -3.90202415 0.12738567 0 0 Z " fill="#1E0A24" transform="translate(307.2734375,587.92578125)"/>
<path d="M0 0 C3.05963991 1.99813218 4.63075377 3.33509515 5.4375 6.97265625 C5.63780525 10.32150969 5.22331796 12.6278034 3.5 15.5 C0.00158164 17.59905102 -3.09002339 17.8594206 -7 17 C-10 15.125 -10 15.125 -12 12 C-12.55543288 8.59797364 -12.71840841 5.38250628 -12 2 C-7.96966428 -0.68689048 -4.73344002 -0.78752505 0 0 Z " fill="#AE80CC" transform="translate(640,551)"/>
<path d="M0 0 C2.68882228 2.77284798 2.96524441 4.75236646 3.5 8.5625 C3 12 3 12 1 14.4375 C-3.1476961 16.59775838 -5.34529312 16.59107389 -10 16 C-12.5 14.4375 -12.5 14.4375 -14 12 C-14.625 8.5625 -14.625 8.5625 -14 5 C-9.73414656 -0.01237779 -6.48427053 -1.06299517 0 0 Z " fill="#B68BDD" transform="translate(196,551)"/>
<path d="M0 0 C4.29 0 8.58 0 13 0 C13 3.3 13 6.6 13 10 C12.67 10 12.34 10 12 10 C12 7.03 12 4.06 12 1 C8.37 1 4.74 1 1 1 C1.01160156 2.15757812 1.02320313 3.31515625 1.03515625 4.5078125 C1.04454077 6.04687338 1.05364026 7.58593601 1.0625 9.125 C1.07087891 9.88554688 1.07925781 10.64609375 1.08789062 11.4296875 C1.09111328 12.17734375 1.09433594 12.925 1.09765625 13.6953125 C1.10289307 14.37609863 1.10812988 15.05688477 1.11352539 15.75830078 C1 18 1 18 0.49780273 20.81738281 C-0.05357641 24.34253165 -0.09582626 27.65926415 -0.0625 31.2265625 C-0.05871338 31.89666351 -0.05492676 32.56676453 -0.05102539 33.25717163 C-0.03890093 35.37984947 -0.02027054 37.50238532 0 39.625 C0.02665084 42.42968395 0.0466054 45.23429928 0.0625 48.0390625 C0.07410156 49.27865723 0.08570313 50.51825195 0.09765625 51.79541016 C0 55 0 55 -1 59 C2.3 59.33 5.6 59.66 9 60 C8.98839844 58.83984375 8.97679687 57.6796875 8.96484375 56.484375 C8.90389661 47.59942511 9.02873558 38.84544384 10 30 C10.33 30 10.66 30 11 30 C11.02923559 33.85415052 11.04687777 37.70827215 11.0625 41.5625 C11.07087891 42.64853516 11.07925781 43.73457031 11.08789062 44.85351562 C11.10459218 50.34832611 10.98582259 55.58961935 10 61 C5.38 61 0.76 61 -4 61 C-4.15518293 49.23308564 -3.58086972 37.71774196 -2.5625 26 C-2.4258662 24.35811993 -2.28979642 22.71619282 -2.15429688 21.07421875 C-2.02134675 19.48693608 -1.88790139 17.89969479 -1.75390625 16.3125 C-1.6934462 15.59465332 -1.63298615 14.87680664 -1.57069397 14.13720703 C-1.15863279 9.40761775 -0.61259523 4.7079017 0 0 Z " fill="#815291" transform="translate(183,577)"/>
<path d="M0 0 C4.62 0 9.24 0 14 0 C14 4.62 14 9.24 14 14 C13.67 14 13.34 14 13 14 C13 9.71 13 5.42 13 1 C9.04 1 5.08 1 1 1 C1 5.62 1 10.24 1 15 C-1.97 15 -4.94 15 -8 15 C-8 18.3 -8 21.6 -8 25 C-4.7 25 -1.4 25 2 25 C2 37.54 2 50.08 2 63 C-0.10244832 58.79510336 -0.29666227 56.66461747 -0.4140625 52.046875 C-0.43342865 51.38665344 -0.4527948 50.72643188 -0.4727478 50.04620361 C-0.53229349 47.94759847 -0.57882722 45.84893772 -0.625 43.75 C-0.66320294 42.3228934 -0.70225602 40.89580928 -0.7421875 39.46875 C-0.8379733 35.97937309 -0.92209642 32.48982714 -1 29 C-1.56589844 28.86722656 -2.13179688 28.73445312 -2.71484375 28.59765625 C-3.44832031 28.42105469 -4.18179687 28.24445312 -4.9375 28.0625 C-6.03384766 27.80146484 -6.03384766 27.80146484 -7.15234375 27.53515625 C-9 27 -9 27 -10 26 C-10.09873816 24.00200428 -10.12971799 22.00042842 -10.125 20 C-10.12757813 18.906875 -10.13015625 17.81375 -10.1328125 16.6875 C-10 14 -10 14 -9 13 C-5.99668982 12.85806663 -3.00782866 12.95763622 0 13 C0 8.71 0 4.42 0 0 Z " fill="#4E2C5A" transform="translate(446,563)"/>
<path d="M0 0 C0.66 0 1.32 0 2 0 C1.24729473 13.36135984 0.35700116 26.71169298 -0.5625 40.0625 C-0.70254893 42.10481257 -0.84252333 44.14713025 -0.98242188 46.18945312 C-1.32075823 51.12636125 -1.66009336 56.06319975 -2 61 C2.29 61 6.58 61 11 61 C11 61.33 11 61.66 11 62 C6.38 62 1.76 62 -3 62 C-3 52.1 -3 42.2 -3 32 C-3.66 32 -4.32 32 -5 32 C-4.69217504 30.35328588 -4.37860766 28.70764424 -4.0625 27.0625 C-3.88847656 26.14597656 -3.71445313 25.22945312 -3.53515625 24.28515625 C-3 22 -3 22 -2 21 C-2.33 20.01 -2.66 19.02 -3 18 C-2.96343957 15.68544383 -2.84984284 13.37164524 -2.6875 11.0625 C-2.60886719 9.83660156 -2.53023437 8.61070312 -2.44921875 7.34765625 C-2.04884984 4.36403752 -1.55411553 2.53098815 0 0 Z " fill="#39113C" transform="translate(181,577)"/>
<path d="M0 0 C2.20639111 1.23195971 4.35629164 2.50856287 6.4765625 3.8828125 C6.4765625 4.5428125 6.4765625 5.2028125 6.4765625 5.8828125 C5.9196875 5.5940625 5.3628125 5.3053125 4.7890625 5.0078125 C4.0259375 4.6365625 3.2628125 4.2653125 2.4765625 3.8828125 C1.7134375 3.5115625 0.9503125 3.1403125 0.1640625 2.7578125 C-4.13754028 1.35729067 -7.5505879 0.89462937 -11.71484375 2.98046875 C-15.30569541 5.38935851 -17.22132271 6.95869668 -18.5859375 11.1328125 C-18.50382343 22.00952399 -18.50382343 22.00952399 -14.5234375 31.8828125 C-9.93033736 34.84260984 -4.94678466 36.32657177 0.4765625 36.8828125 C0.4765625 37.2128125 0.4765625 37.5428125 0.4765625 37.8828125 C-6.52831083 38.3831606 -11.72477889 37.14271905 -17.1484375 32.48828125 C-22.00240843 26.8207186 -21.87065154 18.9672748 -21.921875 11.8984375 C-21.30954447 7.26393585 -19.45119452 4.71779382 -16.0234375 1.6328125 C-11.06366455 -1.83902857 -5.51207975 -2.44033252 0 0 Z " fill="#462653" transform="translate(592.5234375,589.1171875)"/>
<path d="M0 0 C1.92392578 -0.00773438 1.92392578 -0.00773438 3.88671875 -0.015625 C7.01234783 0.22672708 8.71149683 0.59062582 11.3125 2.25 C11.3125 2.91 11.3125 3.57 11.3125 4.25 C11.9725 4.58 12.6325 4.91 13.3125 5.25 C12.18606079 5.22643433 12.18606079 5.22643433 11.03686523 5.20239258 C7.60798789 5.13972242 4.17923145 5.10090739 0.75 5.0625 C-0.43142578 5.03736328 -1.61285156 5.01222656 -2.83007812 4.98632812 C-9.20913626 4.93272259 -14.1238273 4.97771295 -19.6875 8.25 C-21.55000805 10.46491684 -21.55000805 10.46491684 -22.6875 13.25 C-23.203125 14.36375 -23.71875 15.4775 -24.25 16.625 C-26.27430652 21.72977297 -27.70570814 26.85014477 -28.6875 32.25 C-29.0175 32.25 -29.3475 32.25 -29.6875 32.25 C-30.373525 21.61661251 -26.75715056 13.5870632 -20.1875 5.375 C-18.6875 4.25 -18.6875 4.25 -14.6875 4.25 C-14.6875 3.59 -14.6875 2.93 -14.6875 2.25 C-9.63924368 0.60425538 -5.36627458 -0.02170384 0 0 Z " fill="#8D609F" transform="translate(688.6875,575.75)"/>
<path d="M0 0 C1.07785138 3.40971691 0.9941784 6.28853526 0.73046875 9.83984375 C0.64603516 10.98646484 0.56160156 12.13308594 0.47460938 13.31445312 C0.33249023 15.10786133 0.33249023 15.10786133 0.1875 16.9375 C0.10435547 18.09830078 0.02121094 19.25910156 -0.06445312 20.45507812 C-0.49435818 26.09405171 -1.05668107 31.65281608 -1.97265625 37.234375 C-3.32131016 45.55181109 -3.94605619 53.91961713 -4.625 62.3125 C-4.76000087 63.93948768 -4.89541498 65.56644113 -5.03125 67.19335938 C-5.35891853 71.12852895 -5.68103835 75.06411553 -6 79 C-6.66 79 -7.32 79 -8 79 C-8.05905417 75.70841135 -8.09394375 72.41696244 -8.125 69.125 C-8.14175781 68.2071875 -8.15851563 67.289375 -8.17578125 66.34375 C-8.21524041 60.74054963 -7.69266783 55.64273057 -6.47216797 50.17480469 C-5.9215853 47.63882205 -5.66563645 45.15056947 -5.5 42.5625 C-5.22485663 38.9519589 -4.75159519 35.48544938 -4.03515625 31.9375 C-2.88781501 25.79399032 -2.37991054 19.66587095 -1.9375 13.4375 C-1.78369501 11.31092359 -1.62632953 9.1846007 -1.46484375 7.05859375 C-1.399021 6.13361084 -1.33319824 5.20862793 -1.26538086 4.25561523 C-1 2 -1 2 0 0 Z " fill="#491D4B" transform="translate(122,559)"/>
<path d="M0 0 C2 1 2 1 2.59155273 2.72265625 C3.43746873 7.43915622 3.6866056 12.22753332 4.0625 17 C4.15337891 18.07378906 4.24425781 19.14757812 4.33789062 20.25390625 C5.19479574 30.96199874 5.13441005 41.53361409 4.5 52.25 C4.45230469 53.10207031 4.40460937 53.95414063 4.35546875 54.83203125 C4.23995421 56.88819013 4.12042794 58.94412304 4 61 C3.67 61 3.34 61 3 61 C2.27828003 54.92901702 1.76272672 48.89830626 1.46484375 42.79296875 C1.42186661 41.94632156 1.37888947 41.09967438 1.33460999 40.22737122 C1.2450743 38.44844212 1.15691107 36.66944345 1.07006836 34.89038086 C0.93834276 32.20468259 0.80051991 29.51934546 0.66210938 26.83398438 C0.21161932 17.88356473 -0.15427609 8.96515479 0 0 Z " fill="#34123A" transform="translate(544,577)"/>
<path d="M0 0 C0.97904297 0.01804687 1.95808594 0.03609375 2.96679688 0.0546875 C5.37470771 0.10167113 7.78059335 0.16734306 10.1875 0.25 C10.1875 2.89 10.1875 5.53 10.1875 8.25 C9.1975 8.745 9.1975 8.745 8.1875 9.25 C8.1875 6.94 8.1875 4.63 8.1875 2.25 C5.64499979 2.36474466 3.10402662 2.4914697 0.5625 2.625 C-0.15035156 2.6559375 -0.86320312 2.686875 -1.59765625 2.71875 C-5.98402608 2.96020155 -9.6719834 3.64342731 -13.8125 5.25 C-13.4825 8.22 -13.1525 11.19 -12.8125 14.25 C-6.55942761 15.08288874 -1.04432639 15.28863773 5.1875 14.25 C4.1875 16.25 4.1875 16.25 2.46484375 16.85546875 C-3.17085352 17.83180738 -8.73024163 18.18905769 -14 15.8125 C-16.28875557 12.57667316 -16.41002791 10.35436983 -16.4765625 6.46875 C-14.1646297 -1.25582548 -6.54873019 -0.22869978 0 0 Z " fill="#391B45" transform="translate(76.8125,610.75)"/>
<path d="M0 0 C0 0.99 0 1.98 0 3 C-17.26641212 5.04855737 -34.68602763 3.77871455 -52 3 C-52 2.34 -52 1.68 -52 1 C-34.84 0.67 -17.68 0.34 0 0 Z " fill="#36143A" transform="translate(168,637)"/>
<path d="M0 0 C0.5259375 0.6496875 0.5259375 0.6496875 1.0625 1.3125 C0.15113281 1.15265625 -0.76023438 0.9928125 -1.69921875 0.828125 C-7.03244005 0.07217204 -12.37240352 0.08913825 -17.75 0.0625 C-18.77931641 0.041875 -19.80863281 0.02125 -20.86914062 0 C-27.72822008 -0.03470755 -33.49799146 0.94226036 -39.9375 3.3125 C-39.9375 2.6525 -39.9375 1.9925 -39.9375 1.3125 C-39.2775 1.3125 -38.6175 1.3125 -37.9375 1.3125 C-37.9375 0.6525 -37.9375 -0.0075 -37.9375 -0.6875 C-26.35143168 -4.46246898 -10.26360181 -8.93926609 0 0 Z " fill="#9765AA" transform="translate(93.9375,580.6875)"/>
<path d="M0 0 C0.5775 0.21527344 1.155 0.43054688 1.75 0.65234375 C-0.23 1.64234375 -0.23 1.64234375 -2.25 2.65234375 C-1.92 3.64234375 -1.59 4.63234375 -1.25 5.65234375 C-1.95125 6.12671875 -2.6525 6.60109375 -3.375 7.08984375 C-7.15474936 10.45875079 -9.65539435 14.33053726 -12.25 18.65234375 C-12.82814453 19.52632812 -12.82814453 19.52632812 -13.41796875 20.41796875 C-14.69648443 23.85135358 -14.45790268 27.29288882 -14.375 30.90234375 C-14.36597656 31.64742187 -14.35695313 32.3925 -14.34765625 33.16015625 C-14.32418358 34.99102434 -14.28831525 36.82172613 -14.25 38.65234375 C-14.91 38.32234375 -15.57 37.99234375 -16.25 37.65234375 C-16.74693366 14.9038253 -16.74693366 14.9038253 -10.25 5.65234375 C-3.90314985 -0.60309086 -3.90314985 -0.60309086 0 0 Z " fill="#9B6CB5" transform="translate(574.25,578.34765625)"/>
<path d="M0 0 C0.33 0 0.66 0 1 0 C1 5.61 1 11.22 1 17 C12.88 17 24.76 17 37 17 C37 17.66 37 18.32 37 19 C24.46 19 11.92 19 -1 19 C-0.67 12.73 -0.34 6.46 0 0 Z " fill="#3A1740" transform="translate(132,606)"/>
<path d="M0 0 C14.85 0 29.7 0 45 0 C45 0.66 45 1.32 45 2 C30.81 2 16.62 2 2 2 C2 3.65 2 5.3 2 7 C1.34 6.34 0.68 5.68 0 5 C0 3.35 0 1.7 0 0 Z " fill="#502A57" transform="translate(292,611)"/>
<path d="M0 0 C4.62 0 9.24 0 14 0 C16.15469694 12.64088872 16.61195823 25.20093133 17 38 C16.67 38 16.34 38 16 38 C15.91697632 37.09906616 15.91697632 37.09906616 15.83227539 36.17993164 C15.58029218 33.47366869 15.3214883 30.76810116 15.0625 28.0625 C14.93198242 26.64420898 14.93198242 26.64420898 14.79882812 25.19726562 C14.71181641 24.29814453 14.62480469 23.39902344 14.53515625 22.47265625 C14.456604 21.64000244 14.37805176 20.80734863 14.29711914 19.94946289 C14.19688602 17.999388 14.19688602 17.999388 13 17 C12.602507 14.65276034 12.25631277 12.29671452 11.9375 9.9375 C11.76089844 8.64714844 11.58429687 7.35679687 11.40234375 6.02734375 C11.20318359 4.52880859 11.20318359 4.52880859 11 3 C8.03 2.67 5.06 2.34 2 2 C2 6.29 2 10.58 2 15 C1.67 15 1.34 15 1 15 C0.67 10.05 0.34 5.1 0 0 Z " fill="#895A97" transform="translate(631,577)"/>
<path d="M0 0 C4.29 0 8.58 0 13 0 C13.93854006 7.03905044 14.10808032 13.90272572 14 21 C10.79435193 16.19152789 10.87853977 12.33920904 11.4375 6.6875 C11.59025391 5.08455078 11.59025391 5.08455078 11.74609375 3.44921875 C11.82988281 2.64097656 11.91367187 1.83273437 12 1 C7.545 1.495 7.545 1.495 3 2 C3 11.24 3 20.48 3 30 C2.34 29.67 1.68 29.34 1 29 C1.01160156 28.33097656 1.02320313 27.66195312 1.03515625 26.97265625 C1.11995022 17.94815531 0.59711025 8.99930454 0 0 Z " fill="#AD7BC7" transform="translate(600,554)"/>
<path d="M0 0 C3 2 3 2 3.546875 4.6796875 C3.61390625 5.73414063 3.6809375 6.78859375 3.75 7.875 C3.86601563 9.44894531 3.86601563 9.44894531 3.984375 11.0546875 C3.99827071 13.67402798 3.76073405 15.52632058 3 18 C2.84660156 18.66 2.69320312 19.32 2.53515625 20 C1.21651454 25.57970707 1.21651454 25.57970707 -0.0625 28.0625 C-1.45076673 30.93158457 -1.63758964 33.8591102 -2 37 C-2.33 37 -2.66 37 -3 37 C-3.18918311 32.17583069 -2.86355393 27.76478744 -2.0625 23 C-0.79632845 15.358071 -0.37688687 7.72618092 0 0 Z " fill="#A970C5" transform="translate(121,574)"/>
<path d="M0 0 C3.63 0 7.26 0 11 0 C11.0578304 4.45827926 11.09353855 8.9164628 11.125 13.375 C11.14175781 14.64601563 11.15851563 15.91703125 11.17578125 17.2265625 C11.18222656 18.43828125 11.18867188 19.65 11.1953125 20.8984375 C11.20578613 22.01911621 11.21625977 23.13979492 11.22705078 24.29443359 C11 27 11 27 9 29 C7.63287151 19.5820037 8.33106349 10.4474418 9 1 C6.00741718 2.24593244 6.00741718 2.24593244 3 4 C1.55032098 7.5693717 1.55032098 7.5693717 1 11 C0.67 11 0.34 11 0 11 C0 7.37 0 3.74 0 0 Z " fill="#A27AC0" transform="translate(184,578)"/>
<path d="M0 0 C0.66 0.33 1.32 0.66 2 1 C1.67 8.59 1.34 16.18 1 24 C0.34 24 -0.32 24 -1 24 C-1.33 28.29 -1.66 32.58 -2 37 C-2.66 37 -3.32 37 -4 37 C-3.5960525 24.43583973 -2.34626469 12.35109147 0 0 Z " fill="#B680D0" transform="translate(120,599)"/>
<path d="M0 0 C2.91668753 1.45834376 4.27985705 3.26051309 6 6 C5.60546875 8.16796875 5.60546875 8.16796875 5 10 C3.56138706 9.91253716 2.12402492 9.80434652 0.6875 9.6875 C-0.11300781 9.62949219 -0.91351563 9.57148437 -1.73828125 9.51171875 C-4.36272334 8.91793306 -5.30820672 8.04219706 -7 6 C-5.7809706 2.34291179 -4.11570556 0 0 0 Z " fill="#B591D4" transform="translate(326,621)"/>
<path d="M0 0 C0.33 0.66 0.66 1.32 1 2 C1.66 2.28875 2.32 2.5775 3 2.875 C5 4 5 4 5.75 6.125 C5.87375 7.053125 5.87375 7.053125 6 8 C5.34 7.67 4.68 7.34 4 7 C3.67 8.65 3.34 10.3 3 12 C0.74754119 9.31158141 -0.88213958 7.35358125 -2 4 C-2.66 3.67 -3.32 3.34 -4 3 C-4 2.34 -4 1.68 -4 1 C-10.6 1 -17.2 1 -24 1 C-18.39789106 -4.60210894 -6.81997901 -2.72799161 0 0 Z " fill="#9361A4" transform="translate(257,578)"/>
<path d="M0 0 C1.93166016 0.01740234 1.93166016 0.01740234 3.90234375 0.03515625 C5.19269531 0.04417969 6.48304688 0.05320312 7.8125 0.0625 C8.81152344 0.07410156 9.81054688 0.08570313 10.83984375 0.09765625 C10.83984375 0.42765625 10.83984375 0.75765625 10.83984375 1.09765625 C6.54984375 1.09765625 2.25984375 1.09765625 -2.16015625 1.09765625 C-1.99515625 3.03640625 -1.83015625 4.97515625 -1.66015625 6.97265625 C-0.78401083 18.65322407 -1.0737163 30.39368643 -1.16015625 42.09765625 C-2.15015625 42.59265625 -2.15015625 42.59265625 -3.16015625 43.09765625 C-2.83015625 35.83765625 -2.50015625 28.57765625 -2.16015625 21.09765625 C-2.82015625 21.09765625 -3.48015625 21.09765625 -4.16015625 21.09765625 C-4.18903771 17.78517438 -4.20691424 14.47272458 -4.22265625 11.16015625 C-4.23103516 10.21462891 -4.23941406 9.26910156 -4.24804688 8.29492188 C-4.25126953 7.39580078 -4.25449219 6.49667969 -4.2578125 5.5703125 C-4.26304932 4.73765869 -4.26828613 3.90500488 -4.27368164 3.04711914 C-4.08046966 -0.27072533 -3.39709029 0.10497807 0 0 Z " fill="#451F48" transform="translate(533.16015625,575.90234375)"/>
<path d="M0 0 C0.99 0 1.98 0 3 0 C4.87875759 6.07833338 5.1334003 11.51575275 4.8125 17.8125 C4.7822876 18.55363037 4.7520752 19.29476074 4.72094727 20.05834961 C4.44114182 24.38623672 3.740527 26.69902494 1 30 C1.00523682 29.37544922 1.01047363 28.75089844 1.01586914 28.10742188 C1.03684076 25.23829176 1.04972376 22.36917785 1.0625 19.5 C1.07087891 18.51773438 1.07925781 17.53546875 1.08789062 16.5234375 C1.10659124 10.91325243 0.838879 5.54849101 0 0 Z " fill="#401E49" transform="translate(99,587)"/>
<path d="M0 0 C0.33 0 0.66 0 1 0 C1.33 3.3 1.66 6.6 2 10 C-4.41901526 13.42347481 -11.16619844 14.45264503 -18.26171875 12.3203125 C-20.1875 11.5 -20.1875 11.5 -23 10 C-23 9.67 -23 9.34 -23 9 C-21.35 9 -19.7 9 -18 9 C-18 9.66 -18 10.32 -18 11 C-16.39536551 10.68991116 -14.79130769 10.37683713 -13.1875 10.0625 C-12.29417969 9.88847656 -11.40085937 9.71445312 -10.48046875 9.53515625 C-7.88602829 9.02258847 -7.88602829 9.02258847 -5 8 C-2.3125 8.4375 -2.3125 8.4375 0 9 C0 6.03 0 3.06 0 0 Z " fill="#966AAF" transform="translate(478,626)"/>
<path d="M0 0 C5.96221027 -0.49685086 9.69381888 0.08303181 14.87109375 3.04296875 C18.71536345 4.77112669 22.83426184 4.82927303 27 5 C27 5.33 27 5.66 27 6 C23.39959663 6.82481968 20.06648597 7.13516938 16.375 7.125 C14.96347656 7.12886719 14.96347656 7.12886719 13.5234375 7.1328125 C11 7 11 7 8 6 C8 5.34 8 4.68 8 4 C7.236875 3.896875 6.47375 3.79375 5.6875 3.6875 C2.77363954 2.94209384 1.97049603 2.15541061 0 0 Z " fill="#9A6BB2" transform="translate(570,632)"/>
<path d="M0 0 C0.33 0 0.66 0 1 0 C1.0276619 1.49988961 1.0466861 2.99993869 1.0625 4.5 C1.07410156 5.3353125 1.08570313 6.170625 1.09765625 7.03125 C0.9768495 10.70377528 0.45576708 14.35386334 0 18 C12.54 18 25.08 18 38 18 C38 21.96 38 25.92 38 30 C37.67 30 37.34 30 37 30 C37 27.03 37 24.06 37 21 C33.33043403 19.77681134 29.87678997 19.76883876 26.05078125 19.68359375 C25.27816452 19.66281265 24.50554779 19.64203156 23.70951843 19.62062073 C21.2439352 19.55528962 18.77824639 19.49631685 16.3125 19.4375 C14.63996309 19.39429913 12.96743681 19.35068434 11.29492188 19.30664062 C7.1967225 19.1996251 3.09841704 19.09831143 -1 19 C-1.0272616 16.95840905 -1.04651345 14.91671037 -1.0625 12.875 C-1.07410156 11.73804688 -1.08570313 10.60109375 -1.09765625 9.4296875 C-1.005327 6.1870844 -0.61389906 3.18067388 0 0 Z " fill="#9265A3" transform="translate(131,607)"/>
<path d="M0 0 C3.77482849 1.45960035 5.74938409 3.62407613 8 7 C8 9.97 8 12.94 8 16 C-2.23 16 -12.46 16 -23 16 C-23 15.67 -23 15.34 -23 15 C-13.1 15 -3.2 15 7 15 C6.79356191 8.22006339 6.79356191 8.22006339 3.4375 5.6875 C2.633125 5.130625 1.82875 4.57375 1 4 C1 3.34 1 2.68 1 2 C-4.28 2 -9.56 2 -15 2 C-10.32856133 -1.11429245 -5.47003434 -0.59975277 0 0 Z " fill="#7F528C" transform="translate(316,587)"/>
<path d="M0 0 C4.29 0 8.58 0 13 0 C13 6.27 13 12.54 13 19 C12.67 19 12.34 19 12 19 C12 13.72 12 8.44 12 3 C9.03 3 6.06 3 3 3 C2.67 3.99 2.34 4.98 2 6 C1.34 6 0.68 6 0 6 C0 8.31 0 10.62 0 13 C-0.33 13 -0.66 13 -1 13 C-1.07972012 8.2965127 -0.93491183 4.67455917 0 0 Z " fill="#8D5E9D" transform="translate(123,558)"/>
<path d="M0 0 C0.33 0 0.66 0 1 0 C1.02952761 3.29164717 1.04697292 6.58325938 1.0625 9.875 C1.07087891 10.7928125 1.07925781 11.710625 1.08789062 12.65625 C1.10964173 18.8335647 0.73930108 24.86721835 0 31 C-0.66 31 -1.32 31 -2 31 C-2.05905417 27.70841135 -2.09394375 24.41696244 -2.125 21.125 C-2.14175781 20.2071875 -2.15851563 19.289375 -2.17578125 18.34375 C-2.22051277 11.99187394 -1.48851563 6.17389964 0 0 Z " fill="#301034" transform="translate(116,607)"/>
<path d="M0 0 C0.94101563 0.00322266 1.88203125 0.00644531 2.8515625 0.00976562 C3.83640625 0.01814453 4.82125 0.02652344 5.8359375 0.03515625 C6.82851562 0.03966797 7.82109375 0.04417969 8.84375 0.04882812 C11.2995391 0.0606348 13.75520854 0.07710225 16.2109375 0.09765625 C16.31935701 2.01306763 16.39671829 3.93025398 16.4609375 5.84765625 C16.50734375 6.915 16.55375 7.98234375 16.6015625 9.08203125 C16.12829228 12.73567737 15.01938708 13.8199373 12.2109375 16.09765625 C11.5509375 15.76765625 10.8909375 15.43765625 10.2109375 15.09765625 C10.8503125 14.43765625 11.4896875 13.77765625 12.1484375 13.09765625 C14.89692777 9.59246291 14.89692777 9.59246291 15.2109375 2.09765625 C4.3209375 2.59265625 4.3209375 2.59265625 -6.7890625 3.09765625 C-6.7890625 2.43765625 -6.7890625 1.77765625 -6.7890625 1.09765625 C-4.33631109 -0.12871945 -2.7384844 -0.01649689 0 0 Z " fill="#9D70B9" transform="translate(71.7890625,608.90234375)"/>
<path d="M0 0 C0.66 0.33 1.32 0.66 2 1 C0.71480435 3.86697492 -0.57129254 5.97607712 -3 8 C-3.66 8 -4.32 8 -5 8 C-5.66 11.3 -6.32 14.6 -7 18 C-7.66 18 -8.32 18 -9 18 C-9 24.6 -9 31.2 -9 38 C-11.43666936 34.34499595 -11.34627804 31.54392353 -11.3125 27.3125 C-11.30686035 26.58861084 -11.3012207 25.86472168 -11.29541016 25.11889648 C-11.06910812 15.18065191 -7.06654032 7.06654032 0 0 Z " fill="#915D9B" transform="translate(290,582)"/>
<path d="M0 0 C2.31 0 4.62 0 7 0 C6.525625 0.763125 6.05125 1.52625 5.5625 2.3125 C3.89893903 4.96410548 3.89893903 4.96410548 3 8 C3.33 8.99 3.66 9.98 4 11 C3.5625 13.6875 3.5625 13.6875 3 16 C2.67 16 2.34 16 2 16 C1.67 18.97 1.34 21.94 1 25 C0.67 25 0.34 25 0 25 C0 16.75 0 8.5 0 0 Z " fill="#AD76D2" transform="translate(633,579)"/>
<path d="M0 0 C0.66 0 1.32 0 2 0 C1.67 12.87 1.34 25.74 1 39 C5.29 39 9.58 39 14 39 C14 39.33 14 39.66 14 40 C9.38 40 4.76 40 0 40 C0 30.1 0 20.2 0 10 C-0.66 10 -1.32 10 -2 10 C-1.34 6.7 -0.68 3.4 0 0 Z " fill="#2E0C34" transform="translate(178,599)"/>
<path d="M0 0 C1.66869141 -0.02126953 1.66869141 -0.02126953 3.37109375 -0.04296875 C6.55995233 0.18731602 8.73960955 0.7090884 11.5625 2.1875 C12.375 4.3125 12.375 4.3125 12.5625 6.1875 C10.2525 5.5275 7.9425 4.8675 5.5625 4.1875 C5.5625 3.5275 5.5625 2.8675 5.5625 2.1875 C4.70527344 2.32027344 3.84804687 2.45304688 2.96484375 2.58984375 C-2.83206209 3.48519448 -8.62809708 4.37688564 -14.4375 5.1875 C-9.91515287 0.18061567 -6.60709681 0.03819131 0 0 Z " fill="#44224D" transform="translate(74.4375,587.8125)"/>
<path d="M0 0 C0.33 0 0.66 0 1 0 C1.02469081 4.3782512 1.04285557 8.75646567 1.05493164 13.13476562 C1.05996514 14.62468166 1.06679242 16.11459274 1.07543945 17.60449219 C1.08754805 19.74415304 1.09323807 21.88374868 1.09765625 24.0234375 C1.10289307 25.31169434 1.10812988 26.59995117 1.11352539 27.92724609 C1 31 1 31 0 33 C-0.66 33 -1.32 33 -2 33 C-1.85949111 29.1872846 -1.71161266 25.37488784 -1.5625 21.5625 C-1.50352539 19.95858398 -1.50352539 19.95858398 -1.44335938 18.32226562 C-1.19873496 12.16902064 -0.76466 6.11085425 0 0 Z " fill="#36163D" transform="translate(225,601)"/>
<path d="M0 0 C0.66 0.33 1.32 0.66 2 1 C1.38511719 1.85271484 1.38511719 1.85271484 0.7578125 2.72265625 C-5.65072469 11.90618203 -6.41852342 19.96724707 -7 31 C-10.28058385 26.07912423 -9.65683386 20.74570201 -9 15 C-7.68133014 11.11750513 -6.00461737 7.57251453 -4 4 C-3.34 4 -2.68 4 -2 4 C-2 3.34 -2 2.68 -2 2 C-1.34 2 -0.68 2 0 2 C0 1.34 0 0.68 0 0 Z " fill="#341138" transform="translate(286,584)"/>
<path d="M0 0 C-1.1802026 0.65907418 -2.36970734 1.3014948 -3.5625 1.9375 C-4.22378906 2.29714844 -4.88507813 2.65679688 -5.56640625 3.02734375 C-11.32334573 5.32827141 -17.51774884 5.15737059 -23.625 5.125 C-24.73101562 5.13080078 -24.73101562 5.13080078 -25.859375 5.13671875 C-29.69776228 5.12983992 -33.26974729 4.92887716 -37 4 C-37 3.67 -37 3.34 -37 3 C-35.84242188 3.02320313 -34.68484375 3.04640625 -33.4921875 3.0703125 C-31.95313149 3.08908148 -30.41406845 3.10728046 -28.875 3.125 C-28.11445313 3.14175781 -27.35390625 3.15851562 -26.5703125 3.17578125 C-21.92408382 3.21583495 -18.39742361 2.65357665 -14 1 C-11.92579103 0.55884361 -9.8416088 0.16197735 -7.75 -0.1875 C-6.71359375 -0.36667969 -5.6771875 -0.54585937 -4.609375 -0.73046875 C-2 -1 -2 -1 0 0 Z " fill="#986CAE" transform="translate(426,634)"/>
<path d="M0 0 C1.11761719 -0.00257813 2.23523438 -0.00515625 3.38671875 -0.0078125 C6.3125 0.125 6.3125 0.125 9.3125 1.125 C9.3125 1.785 9.3125 2.445 9.3125 3.125 C9.9725 3.455 10.6325 3.785 11.3125 4.125 C10.03375 4.02960937 8.755 3.93421875 7.4375 3.8359375 C5.72920975 3.72330298 4.02087376 3.61136066 2.3125 3.5 C1.05373047 3.40332031 1.05373047 3.40332031 -0.23046875 3.3046875 C-5.83868584 2.95689109 -10.30546278 3.49294705 -15.6875 5.125 C-14.5625 3.1875 -14.5625 3.1875 -12.6875 1.125 C-8.44469988 0.14872617 -4.34218658 -0.01008638 0 0 Z " fill="#B178CF" transform="translate(243.6875,577.875)"/>
<path d="M0 0 C0.33 0 0.66 0 1 0 C1.19720979 3.58286819 1.38107522 7.16630057 1.5625 10.75 C1.61857422 11.76578125 1.67464844 12.7815625 1.73242188 13.828125 C1.78076172 14.8078125 1.82910156 15.7875 1.87890625 16.796875 C1.9260376 17.69760742 1.97316895 18.59833984 2.02172852 19.52636719 C2.00110175 21.87457408 1.67823071 23.76206702 1 26 C1.66 26.33 2.32 26.66 3 27 C1.68 27 0.36 27 -1 27 C-1.02892385 22.87501462 -1.04677267 18.75005515 -1.0625 14.625 C-1.07087891 13.449375 -1.07925781 12.27375 -1.08789062 11.0625 C-1.09111328 9.94101562 -1.09433594 8.81953125 -1.09765625 7.6640625 C-1.10289307 6.62717285 -1.10812988 5.5902832 -1.11352539 4.52197266 C-1 2 -1 2 0 0 Z " fill="#A56BBF" transform="translate(181,610)"/>
<path d="M0 0 C6.58200168 1.77207738 6.58200168 1.77207738 8.94140625 3.05859375 C11.34911041 4.15965011 13.05320272 4.23539631 15.6875 4.1875 C16.47511719 4.18105469 17.26273437 4.17460938 18.07421875 4.16796875 C20.00699364 4.20733669 20.00699364 4.20733669 21 3 C22.99958364 2.95919217 25.00045254 2.95745644 27 3 C20.90061759 7.67619318 15.64853647 7.97944006 8 7 C4.85289942 5.44276801 2.37330356 3.5884066 0 1 C0 0.67 0 0.34 0 0 Z " fill="#4E2B59" transform="translate(295,620)"/>
<path d="M0 0 C3.83843396 0.39368553 6.96282379 1.33700702 10.4375 2.9375 C18.56229814 6.65631308 26.14295778 7.4938833 35 8 C35 8.33 35 8.66 35 9 C32.64551325 9.05454409 30.29232125 9.0939279 27.9375 9.125 C26.62652344 9.14820313 25.31554687 9.17140625 23.96484375 9.1953125 C18.37923589 8.9201594 13.5702597 7.24891498 8.375 5.3125 C4.89448521 4.12258041 2.57581836 3.73116123 -1 5 C-0.67 3.35 -0.34 1.7 0 0 Z " fill="#784D82" transform="translate(377,618)"/>
<path d="M0 0 C0.33 0 0.66 0 1 0 C2.28846906 9.70953473 3.34057669 19.18003888 3 29 C0.1394109 27.64062915 -1.85927699 26.35479531 -4 24 C-2.35 24.33 -0.7 24.66 1 25 C0.9278125 24.45214844 0.855625 23.90429688 0.78125 23.33984375 C-0.13188961 15.54010957 -0.09410386 7.84198809 0 0 Z " fill="#53295B" transform="translate(599,554)"/>
<path d="M0 0 C0.33 0.99 0.66 1.98 1 3 C-0.051875 3.0825 -1.10375 3.165 -2.1875 3.25 C-6.35084439 4.06901857 -8.1090428 4.93898649 -11 8 C-11.87943404 10.63460948 -11.87943404 10.63460948 -12 13 C-12.66 12.67 -13.32 12.34 -14 12 C-14.375 8.8125 -14.375 8.8125 -14 5 C-9.61311241 -0.15459292 -6.59394479 -0.56844352 0 0 Z " fill="#A172B6" transform="translate(196,551)"/>
<path d="M0 0 C-2.89730733 0.81855324 -5.54859985 1.15372793 -8.5546875 1.24609375 C-9.41707031 1.27896484 -10.27945312 1.31183594 -11.16796875 1.34570312 C-12.96472409 1.40663206 -14.76160549 1.4639562 -16.55859375 1.51757812 C-21.39428021 1.70855531 -25.45592898 2.14787864 -30 4 C-22.99800648 -4.7524919 -9.56826714 -2.83504211 0 0 Z " fill="#905E99" transform="translate(322,578)"/>
<path d="M0 0 C0.33 0 0.66 0 1 0 C1.50666472 4.18672147 2.00413918 8.37448633 2.5 12.5625 C2.64308594 13.74392578 2.78617188 14.92535156 2.93359375 16.14257812 C3.59866722 21.79570264 4.20065423 27.30643621 4 33 C-1.04346093 27.95653907 -0.10325942 16.84856535 -0.13623047 9.93969727 C-0.12015002 6.62537797 -0.07220907 3.31359387 0 0 Z " fill="#62396B" transform="translate(633,604)"/>
<path d="M0 0 C0 0.33 0 0.66 0 1 C-3.63 1 -7.26 1 -11 1 C-11 1.66 -11 2.32 -11 3 C-12.50197356 4.24076077 -14.00612315 5.47921817 -15.53125 6.69140625 C-17.28660135 8.25534961 -18.18614864 9.80260134 -19 12 C-19.66 12 -20.32 12 -21 12 C-20.9262004 8.9004167 -20.60238013 6.72385457 -18.5859375 4.30078125 C-12.59610779 -1.14811671 -7.90299872 -1.42253977 0 0 Z " fill="#4B2556" transform="translate(247,589)"/>
<path d="M0 0 C0.66 0.33 1.32 0.66 2 1 C1.34 1.66 0.68 2.32 0 3 C-0.24287489 5.44012949 -0.24287489 5.44012949 -0.125 8.125 C-0.10695312 9.03507813 -0.08890625 9.94515625 -0.0703125 10.8828125 C-0.04710937 11.58148437 -0.02390625 12.28015625 0 13 C6.25307239 13.83288874 11.76817361 14.03863773 18 13 C17 15 17 15 15.27734375 15.60546875 C9.64164648 16.58180738 4.08225837 16.93905769 -1.1875 14.5625 C-3.50192659 11.29037965 -3.52172406 9.0477963 -3.46875 5.12109375 C-2.90678419 2.57819846 -1.97297779 1.64239906 0 0 Z " fill="#4A2853" transform="translate(64,612)"/>
<path d="M0 0 C6.30596952 1.10938353 11.37529486 2.93197901 17 6 C17 6.66 17 7.32 17 8 C17.99 8.33 18.98 8.66 20 9 C13.19576697 8.62198705 7.75768689 6.702899 2 3 C1.34 2.01 0.68 1.02 0 0 Z " fill="#A674BF" transform="translate(381,594)"/>
<path d="M0 0 C1.21236328 0.01353516 1.21236328 0.01353516 2.44921875 0.02734375 C3.37154297 0.04474609 3.37154297 0.04474609 4.3125 0.0625 C4.3125 0.3925 4.3125 0.7225 4.3125 1.0625 C3.67183594 1.12566406 3.03117188 1.18882812 2.37109375 1.25390625 C-4.63575282 2.24593371 -8.36472782 4.4574376 -12.6875 10.0625 C-13.97196919 12.63143838 -14.01727144 14.82826337 -14.25 17.6875 C-14.33378906 18.69039062 -14.41757812 19.69328125 -14.50390625 20.7265625 C-14.56449219 21.49742187 -14.62507812 22.26828125 -14.6875 23.0625 C-15.0175 23.0625 -15.3475 23.0625 -15.6875 23.0625 C-16.25870303 9.98829728 -16.25870303 9.98829728 -12.6875 5.0625 C-8.57437067 1.25785537 -5.56038697 -0.08058532 0 0 Z " fill="#4A2C59" transform="translate(688.6875,587.9375)"/>
<path d="M0 0 C1.625 1.5 1.625 1.5 3 4 C2.77729915 8.02511173 1.58935188 11.17911702 -0.75 14.4375 C-3.49281602 16.34223335 -5.70402357 16.70036578 -9 17 C-8.21625 16.278125 -7.4325 15.55625 -6.625 14.8125 C-4.15587562 12.16700959 -3.06739722 10.39626389 -2 7 C-1.34 7 -0.68 7 0 7 C0 4.69 0 2.38 0 0 Z " fill="#AE7ACB" transform="translate(707,609)"/>
<path d="M0 0 C0.99 0.66 1.98 1.32 3 2 C3 4.31 3 6.62 3 9 C-6.9 9 -16.8 9 -27 9 C-27 7.02 -27 5.04 -27 3 C-26.34 2.67 -25.68 2.34 -25 2 C-25 3.65 -25 5.3 -25 7 C-11.635 7.495 -11.635 7.495 2 8 C1.34 5.36 0.68 2.72 0 0 Z " fill="#38173D" transform="translate(320,593)"/>
<path d="M0 0 C10.89 0 21.78 0 33 0 C32.67 0.66 32.34 1.32 32 2 C30.06447266 1.98259766 30.06447266 1.98259766 28.08984375 1.96484375 C26.37239729 1.9554588 24.65494925 1.94635936 22.9375 1.9375 C22.08994141 1.92912109 21.24238281 1.92074219 20.36914062 1.91210938 C15.45517678 1.89313654 10.85012397 2.23551018 6 3 C2.92316555 2.58421156 2.24298598 2.24298598 0 0 Z " fill="#B987D2" transform="translate(132,626)"/>
<path d="M0 0 C0.66 0.33 1.32 0.66 2 1 C1.2575 1.61875 0.515 2.2375 -0.25 2.875 C-6.44721394 9.05465809 -8.48794886 19.68371875 -10 28 C-10.33 28 -10.66 28 -11 28 C-11.62373674 18.33208054 -8.82042272 10.69797843 -3 3 C-1.25 1.125 -1.25 1.125 0 0 Z " fill="#835C98" transform="translate(670,580)"/>
<path d="M0 0 C-3.26379481 1.0879316 -5.33474394 0.73692291 -8.6796875 0.26171875 C-14.42485253 -0.38630492 -20.38398399 -0.49760427 -26 1 C-19.84802028 -6.44713334 -7.68493201 -3.05217158 0 0 Z " fill="#4F295A" transform="translate(418,572)"/>
<path d="M0 0 C0.66 0 1.32 0 2 0 C1.8125 2.3125 1.8125 2.3125 1 5 C-3.44353512 8.73821209 -7.81483282 8.35672575 -13.3125 8.1875 C-14.14845703 8.17396484 -14.98441406 8.16042969 -15.84570312 8.14648438 C-17.89741498 8.11131217 -19.94879275 8.05751048 -22 8 C-22.33 7.34 -22.66 6.68 -23 6 C-17.39 6.33 -11.78 6.66 -6 7 C-6 6.34 -6 5.68 -6 5 C-5.38125 4.731875 -4.7625 4.46375 -4.125 4.1875 C-1.7004767 3.04443152 -1.7004767 3.04443152 0 0 Z " fill="#A06EB2" transform="translate(418,620)"/>
<path d="M0 0 C0.33 0 0.66 0 1 0 C3.25985173 12.15837581 2.89865502 23.70831737 2 36 C1.67 36 1.34 36 1 36 C0.26131705 23.98321123 -0.13873856 12.03942433 0 0 Z " fill="#512A5C" transform="translate(502,577)"/>
<path d="M0 0 C0.33 0 0.66 0 1 0 C1.738041 18.04100228 1.738041 18.04100228 -3 25 C-3.66 25 -4.32 25 -5 25 C-5.33 24.01 -5.66 23.02 -6 22 C-5.01 20.515 -5.01 20.515 -4 19 C-3.34 19 -2.68 19 -2 19 C-2 17.02 -2 15.04 -2 13 C-1.34 13 -0.68 13 0 13 C0 8.71 0 4.42 0 0 Z " fill="#9063A7" transform="translate(719,604)"/>
<path d="M0 0 C3.96 0 7.92 0 12 0 C12 0.33 12 0.66 12 1 C10.906875 1.226875 9.81375 1.45375 8.6875 1.6875 C4.95774757 2.66253425 4.95774757 2.66253425 3.125 5.25 C1.92522765 8.18277686 1.36526085 10.85875665 1 14 C0.67 14 0.34 14 0 14 C0 9.38 0 4.76 0 0 Z " fill="#A779C4" transform="translate(447,564)"/>
<path d="M0 0 C1.43861294 0.08746284 2.87597508 0.19565348 4.3125 0.3125 C5.11300781 0.37050781 5.91351563 0.42851563 6.73828125 0.48828125 C9.4502992 1.10188117 10.39701374 1.7405527 12 4 C12.78223344 8.16424275 12.64718601 11.89439057 10.5 15.5625 C10.005 16.036875 9.51 16.51125 9 17 C8.01 16.67 7.02 16.34 6 16 C6.66 16 7.32 16 8 16 C9.01382963 12.3791799 9.49897691 8.72188582 10 5 C5.05 3.02 5.05 3.02 0 1 C0 0.67 0 0.34 0 0 Z " fill="#673E71" transform="translate(417,559)"/>
<path d="M0 0 C0.33 0 0.66 0 1 0 C1.19689005 3.27033928 1.38089008 6.54127941 1.5625 9.8125 C1.61857422 10.74126953 1.67464844 11.67003906 1.73242188 12.62695312 C1.78076172 13.51962891 1.82910156 14.41230469 1.87890625 15.33203125 C1.9260376 16.15421143 1.97316895 16.9763916 2.02172852 17.82348633 C2 20 2 20 1 23 C0.77674186 25.05893621 0.59294241 27.12233653 0.4375 29.1875 C0.35371094 30.27417969 0.26992187 31.36085938 0.18359375 32.48046875 C0.12300781 33.31191406 0.06242188 34.14335938 0 35 C-0.33 35 -0.66 35 -1 35 C-1.14534014 23.29204426 -0.71125207 11.68485544 0 0 Z " fill="#8F64A5" transform="translate(253,598)"/>
<path d="M0 0 C0.66 0 1.32 0 2 0 C3.59124088 8.75182482 3.59124088 8.75182482 1.3125 13.5625 C-1.05786069 16.06098829 -1.79325505 16.39915726 -5 17 C-4.360625 15.865625 -3.72125 14.73125 -3.0625 13.5625 C-0.80237891 9.09816188 -0.22937207 4.95443682 0 0 Z " fill="#9F6CB4" transform="translate(604,606)"/>
<path d="M0 0 C4.29 0 8.58 0 13 0 C13.93854006 7.03905044 14.10808032 13.90272572 14 21 C9.74961126 14.62441688 11.2759847 8.3205991 12 1 C8.04 1 4.08 1 0 1 C0 0.67 0 0.34 0 0 Z " fill="#996CAF" transform="translate(600,554)"/>
<path d="M0 0 C1 2 1 2 0.22265625 4.8203125 C-0.16019531 5.91085937 -0.54304688 7.00140625 -0.9375 8.125 C-1.31777344 9.22070312 -1.69804687 10.31640625 -2.08984375 11.4453125 C-2.54037109 12.70988281 -2.54037109 12.70988281 -3 14 C-3.66 14 -4.32 14 -5 14 C-5.66 17.3 -6.32 20.6 -7 24 C-8.16915233 19.3233907 -7.45376457 17.30322949 -6.0625 12.75 C-5.68222656 11.48671875 -5.30195313 10.2234375 -4.91015625 8.921875 C-4.60980469 7.95765625 -4.30945313 6.9934375 -4 6 C-3.34 6 -2.68 6 -2 6 C-1.855625 5.195625 -1.71125 4.39125 -1.5625 3.5625 C-1 1 -1 1 0 0 Z " fill="#4F2451" transform="translate(352,311)"/>
<path d="M0 0 C0.33 0 0.66 0 1 0 C1.03738281 1.08539062 1.07476562 2.17078125 1.11328125 3.2890625 C1.17897875 4.73440739 1.24542476 6.17971839 1.3125 7.625 C1.33505859 8.33785156 1.35761719 9.05070313 1.38085938 9.78515625 C1.61757691 14.47646731 2.32547539 17.98821308 5 22 C8.59385054 22.97873538 8.59385054 22.97873538 12 23 C12 23.33 12 23.66 12 24 C10.7625 24.103125 9.525 24.20625 8.25 24.3125 C7.20585937 24.39951172 7.20585937 24.39951172 6.140625 24.48828125 C4 24 4 24 1.75 22.09375 C-0.71379711 17.73810868 -0.44031938 14.09554396 -0.25 9.1875 C-0.23195313 8.30384766 -0.21390625 7.42019531 -0.1953125 6.50976562 C-0.14838513 4.33937457 -0.07664731 2.16954481 0 0 Z " fill="#321438" transform="translate(461,602)"/>
<path d="M0 0 C0.66 0.33 1.32 0.66 2 1 C1.54554036 2.41791408 1.08625056 3.83428046 0.625 5.25 C0.36976562 6.03890625 0.11453125 6.8278125 -0.1484375 7.640625 C-1 10 -1 10 -2.0625 12.0625 C-3.45076673 14.93158457 -3.63758964 17.8591102 -4 21 C-4.33 21 -4.66 21 -5 21 C-5.2472999 14.19925275 -5.11442126 7.33427968 -1.375 1.4375 C-0.92125 0.963125 -0.4675 0.48875 0 0 Z " fill="#A06AB8" transform="translate(123,590)"/>
<path d="M0 0 C1.32 1.65 2.64 3.3 4 5 C3.01 5.495 3.01 5.495 2 6 C1.53045739 9.04581269 1.53045739 9.04581269 1.375 12.5625 C1.30023438 13.76003906 1.22546875 14.95757813 1.1484375 16.19140625 C1.09945312 17.11824219 1.05046875 18.04507813 1 19 C0.34 19 -0.32 19 -1 19 C-0.67 12.73 -0.34 6.46 0 0 Z " fill="#A36FB9" transform="translate(117,617)"/>
<path d="M0 0 C0.33 0.66 0.66 1.32 1 2 C0.67 2.66 0.34 3.32 0 4 C-0.66 4 -1.32 4 -2 4 C-2.33 4.99 -2.66 5.98 -3 7 C-5.40545638 8.20272819 -6.94996953 8.10071472 -9.625 8.0625 C-10.85089844 8.04896484 -10.85089844 8.04896484 -12.1015625 8.03515625 C-13.04128906 8.01775391 -13.04128906 8.01775391 -14 8 C-14 7.67 -14 7.34 -14 7 C-12.35 7 -10.7 7 -9 7 C-9 6.34 -9 5.68 -9 5 C-8.43410156 4.72285156 -7.86820313 4.44570313 -7.28515625 4.16015625 C-6.55167969 3.79792969 -5.81820312 3.43570313 -5.0625 3.0625 C-3.96615234 2.52302734 -3.96615234 2.52302734 -2.84765625 1.97265625 C-1.03750973 1.13628173 -1.03750973 1.13628173 0 0 Z " fill="#412049" transform="translate(713,631)"/>
<path d="M0 0 C0 1.98 0 3.96 0 6 C-0.99 5.67 -1.98 5.34 -3 5 C-4.1446875 5.4640625 -4.1446875 5.4640625 -5.3125 5.9375 C-8.37756511 7.14926993 -10.73368961 7.15192141 -14 7 C-14 6.67 -14 6.34 -14 6 C-12.35 6 -10.7 6 -9 6 C-9 5.34 -9 4.68 -9 4 C-7.35 3.67 -5.7 3.34 -4 3 C-4 2.34 -4 1.68 -4 1 C-2 0 -2 0 0 0 Z " fill="#421F4B" transform="translate(606,632)"/>
<path d="M0 0 C0.33 0 0.66 0 1 0 C1 5.94 1 11.88 1 18 C-1.64 18 -4.28 18 -7 18 C-6.505 16.515 -6.505 16.515 -6 15 C-6 15.66 -6 16.32 -6 17 C-4.68 16.67 -3.36 16.34 -2 16 C-1.34 10.72 -0.68 5.44 0 0 Z " fill="#B187D0" transform="translate(191,619)"/>
<path d="M0 0 C3.45877722 3.45877722 3.54009381 8.2670414 4 13 C3.88395693 17.03365706 3.51669641 20.99909404 3 25 C2.67 25 2.34 25 2 25 C1.34 16.75 0.68 8.5 0 0 Z " fill="#230A2D" transform="translate(615,573)"/>
<path d="M0 0 C0.78503906 -0.01675781 1.57007813 -0.03351562 2.37890625 -0.05078125 C3.39791016 0.12904297 3.39791016 0.12904297 4.4375 0.3125 C5.0975 1.3025 5.7575 2.2925 6.4375 3.3125 C2.1475 3.3125 -2.1425 3.3125 -6.5625 3.3125 C-6.5625 6.2825 -6.5625 9.2525 -6.5625 12.3125 C-6.8925 12.3125 -7.2225 12.3125 -7.5625 12.3125 C-7.64340971 10.68831255 -7.70164995 9.06298255 -7.75 7.4375 C-7.78480469 6.53257812 -7.81960938 5.62765625 -7.85546875 4.6953125 C-7.75878906 3.90898438 -7.66210938 3.12265625 -7.5625 2.3125 C-4.45212372 0.23891581 -3.56688748 0.01762877 0 0 Z " fill="#8F639D" transform="translate(635.5625,550.6875)"/>
<path d="M0 0 C1.761039 3.522078 0.11530285 7.36878143 -1 11 C-2.5 13.375 -2.5 13.375 -4 15 C-4.66 15.99 -5.32 16.98 -6 18 C-5.44854729 12.76119922 -4.57077907 8.02649303 -3 3 C-2.34 3 -1.68 3 -1 3 C-0.67 2.01 -0.34 1.02 0 0 Z " fill="#653D6D" transform="translate(306,384)"/>
<path d="M0 0 C1.61366033 3.22732066 0.07622004 5.85796768 -0.96484375 9.1796875 C-2.60371716 13.64484449 -4.74825415 17.81691483 -7 22 C-7.33 22 -7.66 22 -8 22 C-8 20.02 -8 18.04 -8 16 C-7.34 16 -6.68 16 -6 16 C-6 14.35 -6 12.7 -6 11 C-5.01 11 -4.02 11 -3 11 C-2.814375 9.39125 -2.814375 9.39125 -2.625 7.75 C-2.10356064 4.62136385 -1.59911746 2.66519576 0 0 Z " fill="#815289" transform="translate(317,355)"/>
<path d="M0 0 C3.55660327 3.55660327 3.92793334 4.93601084 4.09765625 9.796875 C4.08605469 10.77140625 4.07445312 11.7459375 4.0625 12.75 C4.05347656 13.73484375 4.04445313 14.7196875 4.03515625 15.734375 C4.02355469 16.48203125 4.01195312 17.2296875 4 18 C3.34 18 2.68 18 2 18 C1.34 12.06 0.68 6.12 0 0 Z " fill="#4E2955" transform="translate(703,598)"/>
<path d="M0 0 C0.33 0 0.66 0 1 0 C1 3.63 1 7.26 1 11 C2.65 10.67 4.3 10.34 6 10 C6 10.66 6 11.32 6 12 C6.99 12.33 7.98 12.66 9 13 C5.7 13 2.4 13 -1 13 C-1.07654536 8.48382401 -1.10228696 4.40914783 0 0 Z " fill="#B179D4" transform="translate(119,623)"/>
<path d="M0 0 C0.33 0.66 0.66 1.32 1 2 C-0.18359375 3.98046875 -0.18359375 3.98046875 -2 6 C-4.41015625 6.42578125 -4.41015625 6.42578125 -7.0625 6.3125 C-7.94035156 6.28800781 -8.81820312 6.26351562 -9.72265625 6.23828125 C-12 6 -12 6 -14 5 C-14 4.34 -14 3.68 -14 3 C-12.98679688 3.05220703 -12.98679688 3.05220703 -11.953125 3.10546875 C-10.61507812 3.14607422 -10.61507812 3.14607422 -9.25 3.1875 C-8.36828125 3.22230469 -7.4865625 3.25710938 -6.578125 3.29296875 C-3.55328417 2.94923684 -2.24416398 1.99772541 0 0 Z " fill="#46244F" transform="translate(198,563)"/>
<path d="M0 0 C0.99 0.33 1.98 0.66 3 1 C2.01 1.495 2.01 1.495 1 2 C0.5875 2.7425 0.175 3.485 -0.25 4.25 C-2.42211648 7.6633259 -4.81610915 9.52364045 -8 12 C-6.64994369 6.32976351 -4.1842771 3.82042691 0 0 Z " fill="#885999" transform="translate(386,560)"/>
<path d="M0 0 C3.63 0 7.26 0 11 0 C8.78319236 1.10840382 6.55977771 2.20475455 4.3125 3.25 C1.68221824 4.86246846 1.68221824 4.86246846 1.1875 8.1875 C1.125625 9.115625 1.06375 10.04375 1 11 C0.67 11 0.34 11 0 11 C0 7.37 0 3.74 0 0 Z " fill="#AB76CC" transform="translate(184,578)"/>
<path d="M0 0 C0.33 0 0.66 0 1 0 C1.13277344 0.90363281 1.26554687 1.80726563 1.40234375 2.73828125 C1.66724609 4.50751953 1.66724609 4.50751953 1.9375 6.3125 C2.11152344 7.48425781 2.28554688 8.65601563 2.46484375 9.86328125 C2.92093031 13.01641403 2.92093031 13.01641403 4 16 C3.34 16.99 2.68 17.98 2 19 C-0.04898287 14.78103134 -0.21207997 11.34627854 -0.125 6.6875 C-0.10695313 5.43324219 -0.08890625 4.17898438 -0.0703125 2.88671875 C-0.03550781 1.45779297 -0.03550781 1.45779297 0 0 Z " fill="#9A72B4" transform="translate(448,612)"/>
<path d="M0 0 C0.33 0 0.66 0 1 0 C1.33 7.26 1.66 14.52 2 22 C0.02 22 -1.96 22 -4 22 C-3.5155542 21.59676514 -3.0311084 21.19353027 -2.53198242 20.77807617 C-0.63082835 18.57152555 -0.5848884 17.42967446 -0.48828125 14.55078125 C-0.45283203 13.70322266 -0.41738281 12.85566406 -0.38085938 11.98242188 C-0.35830078 11.10134766 -0.33574219 10.22027344 -0.3125 9.3125 C-0.27833984 8.41982422 -0.24417969 7.52714844 -0.20898438 6.60742188 C-0.12654352 4.40507329 -0.05738449 2.20312062 0 0 Z " fill="#AC7BC9" transform="translate(647,615)"/>
<path d="M0 0 C0.28875 0.61875 0.5775 1.2375 0.875 1.875 C1.93720042 4.13325765 1.93720042 4.13325765 4 6 C4.1953125 8.1640625 4.1953125 8.1640625 4.125 10.625 C4.10695313 11.44226563 4.08890625 12.25953125 4.0703125 13.1015625 C4.03550781 14.04128906 4.03550781 14.04128906 4 15 C3.67 13.68 3.34 12.36 3 11 C2.34 11 1.68 11 1 11 C-0.20272819 8.59454362 -0.10071472 7.05003047 -0.0625 4.375 C-0.05347656 3.55773437 -0.04445313 2.74046875 -0.03515625 1.8984375 C-0.02355469 1.27195312 -0.01195312 0.64546875 0 0 Z " fill="#8A60A4" transform="translate(491,614)"/>
<path d="M0 0 C0.99 0 1.98 0 3 0 C3.90238747 2.70716242 4.11851302 4.23776768 4.09765625 7.01171875 C4.09443359 7.76904297 4.09121094 8.52636719 4.08789062 9.30664062 C4.07951172 10.09232422 4.07113281 10.87800781 4.0625 11.6875 C4.05798828 12.48478516 4.05347656 13.28207031 4.04882812 14.10351562 C4.0370585 16.06904257 4.01912348 18.03453085 4 20 C3.67 20 3.34 20 3 20 C2.92652344 18.71416016 2.92652344 18.71416016 2.8515625 17.40234375 C2.45465756 11.33243544 2.00791601 5.75602589 0 0 Z " fill="#43204B" transform="translate(717,597)"/>
<path d="M0 0 C3.42942346 4.57256461 3.42942346 4.57256461 3.875 8.5625 C3.97554688 9.32691406 4.07609375 10.09132813 4.1796875 10.87890625 C4 13 4 13 1 16 C0.67 10.72 0.34 5.44 0 0 Z " fill="#31113A" transform="translate(336,595)"/>
<path d="M0 0 C0.69738281 0.01804687 1.39476563 0.03609375 2.11328125 0.0546875 C3.82611539 0.10161446 5.53823824 0.17335395 7.25 0.25 C7.25 0.58 7.25 0.91 7.25 1.25 C0.92551301 2.31965872 -5.39416673 3.38329546 -11.75 4.25 C-8.36399708 -0.18322032 -5.23938601 -0.25751236 0 0 Z " fill="#371B41" transform="translate(71.75,588.75)"/>
<path d="M0 0 C-2.85584773 1.90389849 -4.9311762 2.69462177 -8.1875 3.625 C-9.08855469 3.88539063 -9.98960938 4.14578125 -10.91796875 4.4140625 C-11.94857422 4.70410156 -11.94857422 4.70410156 -13 5 C-13 4.34 -13 3.68 -13 3 C-12.34 3 -11.68 3 -11 3 C-11 2.34 -11 1.68 -11 1 C-6.87831311 -0.62950412 -4.29299643 -1.26264601 0 0 Z " fill="#845E94" transform="translate(67,579)"/>
<path d="M0 0 C0.66 0.66 1.32 1.32 2 2 C1.40606618 3.29640378 0.79942011 4.58698839 0.1875 5.875 C-0.14894531 6.59429687 -0.48539062 7.31359375 -0.83203125 8.0546875 C-2 10 -2 10 -5 12 C-4.52389341 7.00088076 -2.96837781 4.02167317 0 0 Z " fill="#A274B1" transform="translate(325,178)"/>
<path d="M0 0 C3.80637067 2.53758045 4.00479144 3.55983872 5 8 C5.15840726 12.00617078 5.11670512 15.99312408 5 20 C4.67 20 4.34 20 4 20 C4 16.7 4 13.4 4 10 C3.34 10 2.68 10 2 10 C1.34 6.7 0.68 3.4 0 0 Z " fill="#411C49" transform="translate(599,595)"/>
<path d="M0 0 C0.33 1.32 0.66 2.64 1 4 C-0.07749442 4.82022749 -1.16229508 5.63086169 -2.25 6.4375 C-3.15492188 7.11619141 -3.15492188 7.11619141 -4.078125 7.80859375 C-6.06292756 9.03900997 -7.71987655 9.56112668 -10 10 C-9.67 9.01 -9.34 8.02 -9 7 C-7.68 7 -6.36 7 -5 7 C-4.731875 6.360625 -4.46375 5.72125 -4.1875 5.0625 C-3 3 -3 3 0 2 C0 1.34 0 0.68 0 0 Z " fill="#A879C1" transform="translate(713,627)"/>
<path d="M0 0 C0.99 0.495 0.99 0.495 2 1 C1.979375 2.2375 1.95875 3.475 1.9375 4.75 C1.92941385 7.05455377 1.97131617 8.89163888 2.5625 11.125 C3.20609757 13.8832753 2.56045077 16.26001843 2 19 C-0.44989101 15.25764681 -0.23086143 11.55774581 -0.125 7.25 C-0.11597656 6.55261719 -0.10695313 5.85523438 -0.09765625 5.13671875 C-0.07419888 3.42433042 -0.03833104 1.71211996 0 0 Z " fill="#BD98DD" transform="translate(635,604)"/>
<path d="M0 0 C0 0.66 0 1.32 0 2 C-0.825 2.12375 -1.65 2.2475 -2.5 2.375 C-6.39772067 3.07102155 -10.16739669 4.00880949 -14 5 C-12.875 3.0625 -12.875 3.0625 -11 1 C-7.31095377 0.03764012 -3.79958613 -0.11175253 0 0 Z " fill="#AC79C1" transform="translate(242,578)"/>
<path d="M0 0 C0.66 0 1.32 0 2 0 C0.33333333 5 -1.33333333 10 -3 15 C-4.02956962 11.80176245 -3.94507949 9.63422687 -3.1875 6.375 C-3.01605469 5.59898437 -2.84460938 4.82296875 -2.66796875 4.0234375 C-2 2 -2 2 0 0 Z " fill="#AC7DBF" transform="translate(376,200)"/>
<path d="M0 0 C0.79664063 0.08378906 1.59328125 0.16757812 2.4140625 0.25390625 C10.24114462 1.04727138 10.24114462 1.04727138 18 0 C17.01 1.485 17.01 1.485 16 3 C13.57421875 3.36328125 13.57421875 3.36328125 10.6875 3.3125 C9.74261719 3.30863281 8.79773438 3.30476562 7.82421875 3.30078125 C4.89181838 2.98847858 2.67065051 2.22100779 0 1 C0 0.67 0 0.34 0 0 Z " fill="#37183F" transform="translate(682,623)"/>
<path d="M0 0 C1.89510699 -0.08160748 3.79124504 -0.13946459 5.6875 -0.1875 C6.74324219 -0.22230469 7.79898438 -0.25710938 8.88671875 -0.29296875 C12.35422768 0.03333385 14.18432448 1.00969875 17 3 C14.3401216 4.3299392 13.06580736 3.75503429 10.1875 3.125 C9.33542969 2.94195313 8.48335937 2.75890625 7.60546875 2.5703125 C6.74566406 2.38210938 5.88585937 2.19390625 5 2 C3.33395662 1.66356524 1.66746778 1.32930243 0 1 C0 0.67 0 0.34 0 0 Z " fill="#AD76C0" transform="translate(78,578)"/>
<path d="M0 0 C0.66 0 1.32 0 2 0 C2 2.31 2 4.62 2 7 C1.67 6.34 1.34 5.68 1 5 C-0.98 5.33 -2.96 5.66 -5 6 C-3.38405168 3.95880212 -1.7143618 1.95927063 0 0 Z " fill="#3D1B48" transform="translate(532,631)"/>
<path d="M0 0 C2.6486859 3.19668988 4.93992341 6.39486597 7 10 C4.03 9.505 4.03 9.505 1 9 C0.67 6.03 0.34 3.06 0 0 Z " fill="#9161A9" transform="translate(674,613)"/>
<path d="M0 0 C0.66 0.33 1.32 0.66 2 1 C1.67 1.99 1.34 2.98 1 4 C0.77820215 5.89212737 0.59385985 7.78884472 0.4375 9.6875 C0.31181641 11.17830078 0.31181641 11.17830078 0.18359375 12.69921875 C0.12300781 13.45847656 0.06242188 14.21773437 0 15 C-0.33 15 -0.66 15 -1 15 C-1 11.7 -1 8.4 -1 5 C-1.66 5 -2.32 5 -3 5 C-2.625 3.0625 -2.625 3.0625 -2 1 C-1.34 0.67 -0.68 0.34 0 0 Z " fill="#A176C4" transform="translate(673,595)"/>
<path d="M0 0 C0.98120464 3.05263664 0.98120464 4.94736336 0 8 C-2.31 8.66 -4.62 9.32 -7 10 C-6.21625 9.278125 -5.4325 8.55625 -4.625 7.8125 C-2.15587562 5.16700959 -1.06739722 3.39626389 0 0 Z " fill="#8F5F9F" transform="translate(705,616)"/>
<path d="M0 0 C0.94233665 2.82700996 1.080342 4.40512397 1 7.3125 C0.95193241 10.98967059 1.25831751 14.38429786 2 18 C0.515625 16.9453125 0.515625 16.9453125 -1 15 C-1.328125 11.6796875 -1.328125 11.6796875 -1.25 7.875 C-1.23453125 6.61429688 -1.2190625 5.35359375 -1.203125 4.0546875 C-1 1 -1 1 0 0 Z " fill="#34173F" transform="translate(659,596)"/>
<path d="M0 0 C2.97 0 5.94 0 9 0 C9.33 0.99 9.66 1.98 10 3 C10.99 3.33 11.98 3.66 13 4 C8.28596212 3.52060632 4.33420699 3.03165952 0 1 C0 0.67 0 0.34 0 0 Z " fill="#9E6DB4" transform="translate(388,599)"/>
<path d="M0 0 C2.31 0 4.62 0 7 0 C7 0.66 7 1.32 7 2 C5.741875 2.28875 4.48375 2.5775 3.1875 2.875 C0.1460601 3.57303539 -1.30669878 4.20446585 -4 6 C-4 4.68 -4 3.36 -4 2 C-2.68 2 -1.36 2 0 2 C0 1.34 0 0.68 0 0 Z " fill="#391A40" transform="translate(187,549)"/>
<path d="M0 0 C-0.99 0.66 -1.98 1.32 -3 2 C-4.485 3.0209375 -4.485 3.0209375 -6 4.0625 C-9 6 -9 6 -12 7 C-11.75 5.125 -11.75 5.125 -11 3 C-9.0625 1.8125 -9.0625 1.8125 -7 1 C-4.53721199 -0.231394 -2.7204945 -0.07159196 0 0 Z " fill="#39143E" transform="translate(238,576)"/>
<path d="M0 0 C-4.10542266 2.29903669 -8.69099505 4.35523153 -13.4375 3.625 C-13.953125 3.41875 -14.46875 3.2125 -15 3 C-9.63560356 0.31780178 -5.98993047 -0.3152595 0 0 Z " fill="#A77BC0" transform="translate(686,578)"/>
<path d="M0 0 C3.63 0 7.26 0 11 0 C10.67 0.66 10.34 1.32 10 2 C8.63875 1.9071875 8.63875 1.9071875 7.25 1.8125 C3.71017358 2.01672076 2.55068845 2.64551835 0 5 C0 3.35 0 1.7 0 0 Z " fill="#B883CD" transform="translate(490,578)"/>
<path d="M0 0 C1.1875 1.6875 1.1875 1.6875 1.1875 3.6875 C2.1775 4.0175 3.1675 4.3475 4.1875 4.6875 C0.05998551 4.08051257 -3.1446148 2.64939209 -6.8125 0.6875 C-6.8125 0.3575 -6.8125 0.0275 -6.8125 -0.3125 C-2.28877737 -1.65739051 -2.28877737 -1.65739051 0 0 Z " fill="#9769AF" transform="translate(384.8125,632.3125)"/>
<path d="M0 0 C1.4540625 0.0309375 1.4540625 0.0309375 2.9375 0.0625 C-0.44833802 3.19357836 -2.77359462 3.39800778 -7.3125 3.25 C-8.92898438 3.20939453 -8.92898438 3.20939453 -10.578125 3.16796875 C-11.39796875 3.13316406 -12.2178125 3.09835937 -13.0625 3.0625 C-13.0625 2.7325 -13.0625 2.4025 -13.0625 2.0625 C-12.10537109 1.97162109 -12.10537109 1.97162109 -11.12890625 1.87890625 C-9.88947266 1.75322266 -9.88947266 1.75322266 -8.625 1.625 C-7.80128906 1.54378906 -6.97757812 1.46257813 -6.12890625 1.37890625 C-3.13269668 0.92012936 -3.40485874 0.06948691 0 0 Z " fill="#391B40" transform="translate(319.0625,622.9375)"/>
<path d="M0 0 C3.2542015 2.83430453 4.5206753 4.68607774 5 9 C4.34 8.67 3.68 8.34 3 8 C3 7.34 3 6.68 3 6 C1.68 5.67 0.36 5.34 -1 5 C-0.67 3.35 -0.34 1.7 0 0 Z " fill="#8F62A8" transform="translate(331,588)"/>
<path d="M0 0 C1.65 0 3.3 0 5 0 C1.98112756 3.48331435 -0.56909529 4.79157144 -5 6 C-5 5.34 -5 4.68 -5 4 C-4.01 4 -3.02 4 -2 4 C-1.34 2.68 -0.68 1.36 0 0 Z " fill="#A47BC1" transform="translate(325,631)"/>
<path d="M0 0 C0.99 0.33 1.98 0.66 3 1 C3.73046875 2.84765625 3.73046875 2.84765625 4.1875 5.0625 C4.34605469 5.79597656 4.50460937 6.52945312 4.66796875 7.28515625 C4.83232422 8.13400391 4.83232422 8.13400391 5 9 C4.01 9 3.02 9 2 9 C1.34 6.03 0.68 3.06 0 0 Z " fill="#9C6FAA" transform="translate(482,436)"/>
<path d="M0 0 C1.75152066 2.62728098 3.37608885 5.29348141 5 8 C5.99 9.485 5.99 9.485 7 11 C4.50638429 9.79618552 2.31856917 8.54571278 0 7 C-0.1875 3.375 -0.1875 3.375 0 0 Z " fill="#9564A7" transform="translate(503,613)"/>
<path d="M0 0 C0.66 0 1.32 0 2 0 C2 1.65 2 3.3 2 5 C1.67 5 1.34 5 1 5 C0.67 7.97 0.34 10.94 0 14 C-0.33 14 -0.66 14 -1 14 C-1.02694851 12.04174127 -1.04637218 10.08337774 -1.0625 8.125 C-1.07410156 7.03445313 -1.08570313 5.94390625 -1.09765625 4.8203125 C-1 2 -1 2 0 0 Z " fill="#A170BA" transform="translate(634,590)"/>
<path d="M0 0 C2 2 2 2 2.3125 5.5 C2.209375 6.655 2.10625 7.81 2 9 C1.01 9.66 0.02 10.32 -1 11 C-0.67 7.37 -0.34 3.74 0 0 Z " fill="#A97EC2" transform="translate(197,554)"/>
<path d="M0 0 C0.33 0.66 0.66 1.32 1 2 C0.22265625 4.1640625 0.22265625 4.1640625 -0.9375 6.625 C-1.31777344 7.44226563 -1.69804687 8.25953125 -2.08984375 9.1015625 C-2.39019531 9.72804687 -2.69054687 10.35453125 -3 11 C-3.66 11 -4.32 11 -5 11 C-3.77472971 6.94718288 -2.30119506 3.55639236 0 0 Z " fill="#94669F" transform="translate(296,232)"/>
<path d="M0 0 C2.35953094 2.35953094 2.49141413 3.77895617 3 7 C2.01 6.67 1.02 6.34 0 6 C-0.99 6.99 -1.98 7.98 -3 9 C-2.01 6.03 -1.02 3.06 0 0 Z " fill="#56295C" transform="translate(384,185)"/>
<path d="M0 0 C-2 2 -2 2 -4.1640625 2.1953125 C-5.38222656 2.16050781 -5.38222656 2.16050781 -6.625 2.125 C-7.44226563 2.10695313 -8.25953125 2.08890625 -9.1015625 2.0703125 C-9.72804688 2.04710937 -10.35453125 2.02390625 -11 2 C-10.67 1.34 -10.34 0.68 -10 0 C-6.18015204 -0.77811718 -3.73159669 -1.24386556 0 0 Z " fill="#A775BE" transform="translate(529,635)"/>
<path d="M0 0 C0.33 0 0.66 0 1 0 C1 3.3 1 6.6 1 10 C-1.4375 9.625 -1.4375 9.625 -4 9 C-4.33 8.34 -4.66 7.68 -5 7 C-3.68 7 -2.36 7 -1 7 C-0.67 4.69 -0.34 2.38 0 0 Z " fill="#210729" transform="translate(599,569)"/>
<path d="M0 0 C0.33 0 0.66 0 1 0 C0.25 6.75 0.25 6.75 -2 9 C-2.99 8.67 -3.98 8.34 -5 8 C-4.34 8 -3.68 8 -3 8 C-2.87625 7.4225 -2.7525 6.845 -2.625 6.25 C-1.99351176 3.97664233 -1.11141809 2.0746471 0 0 Z " fill="#552958" transform="translate(428,567)"/>
<path d="M0 0 C1.32 0.33 2.64 0.66 4 1 C4.33 3.64 4.66 6.28 5 9 C1.9083091 6.47043472 1.09068668 3.77545388 0 0 Z " fill="#A474BF" transform="translate(662,616)"/>
<path d="M0 0 C1.98 0 3.96 0 6 0 C5.01 0.66 4.02 1.32 3 2 C2.74969023 4.58380177 2.74969023 4.58380177 3 7 C2.34 7 1.68 7 1 7 C0.67 4.69 0.34 2.38 0 0 Z " fill="#1B0A28" transform="translate(294,613)"/>
<path d="M0 0 C0.99 0.495 0.99 0.495 2 1 C2 1.66 2 2.32 2 3 C3.98 3.66 5.96 4.32 8 5 C8 5.33 8 5.66 8 6 C6.02 6 4.04 6 2 6 C1.34 4.02 0.68 2.04 0 0 Z " fill="#A06CB7" transform="translate(391,585)"/>
<path d="M0 0 C0.66 0.33 1.32 0.66 2 1 C0.63016497 4.16115776 0.0109362 4.9927092 -3 7 C-2.25 2.25 -2.25 2.25 0 0 Z " fill="#A273B2" transform="translate(290,582)"/>
<path d="M0 0 C1.43836751 0.11458693 2.87570966 0.24209116 4.3125 0.375 C5.51326172 0.47941406 5.51326172 0.47941406 6.73828125 0.5859375 C9 1 9 1 12 3 C12 3.66 12 4.32 12 5 C10.68 4.67 9.36 4.34 8 4 C8 3.34 8 2.68 8 2 C5.36 1.67 2.72 1.34 0 1 C0 0.67 0 0.34 0 0 Z " fill="#481F4C" transform="translate(314,576)"/>
<path d="M0 0 C0.33 0 0.66 0 1 0 C1 1.65 1 3.3 1 5 C1.99 5.33 2.98 5.66 4 6 C2.35 6.33 0.7 6.66 -1 7 C-1.04254356 5.00045254 -1.04080783 2.99958364 -1 1 C-0.67 0.67 -0.34 0.34 0 0 Z " fill="#3C1E4A" transform="translate(294,595)"/>
<path d="M0 0 C1.27875 0.103125 2.5575 0.20625 3.875 0.3125 C4.95394531 0.39951172 4.95394531 0.39951172 6.0546875 0.48828125 C8 1 8 1 10 4 C6.44219804 3.39009109 3.3171411 2.4216319 0 1 C0 0.67 0 0.34 0 0 Z " fill="#4F2959" transform="translate(393,587)"/>
<path d="M0 0 C3.3 0 6.6 0 10 0 C8.68 0.99 7.36 1.98 6 3 C2.75 2.1875 2.75 2.1875 0 1 C0 0.67 0 0.34 0 0 Z " fill="#25052B" transform="translate(397,640)"/>
<path d="M0 0 C2.12046792 3.53411321 2.53199289 6.94393835 3 11 C0.50875735 8.83370204 -0.59924482 7.30623023 -1 4 C-0.5625 1.75 -0.5625 1.75 0 0 Z " fill="#A579BF" transform="translate(459,612)"/>
<path d="M0 0 C1.7074998 1.28062485 3.37373596 2.61767557 5 4 C5 4.66 5 5.32 5 6 C3.02 5.34 1.04 4.68 -1 4 C-0.67 2.68 -0.34 1.36 0 0 Z " fill="#9C70B8" transform="translate(326,582)"/>
<path d="M0 0 C1.24675325 4.98701299 1.24675325 4.98701299 0 8 C-0.99 8.33 -1.98 8.66 -3 9 C-2.01 6.03 -1.02 3.06 0 0 Z " fill="#471D4A" transform="translate(310,374)"/>
<path d="M0 0 C0.99 0.495 0.99 0.495 2 1 C2 1.66 2 2.32 2 3 C2.66 3 3.32 3 4 3 C4.33 5.31 4.66 7.62 5 10 C2.08772731 6.71195019 0.50298788 4.40114397 0 0 Z " fill="#91649B" transform="translate(408,247)"/>
</svg>
